<svg viewBox="0 0 24 24" xmlns="http://www.w3.org/2000/svg"><path d="M20.6047 12C20.6047 7.24778 16.7523 3.39535 12 3.39535C7.24778 3.39535 3.39535 7.24778 3.39535 12C3.39535 16.7523 7.24778 20.6047 12 20.6047C16.7523 20.6047 20.6047 16.7523 20.6047 12ZM11.3023 16.2932V12.6977H7.34884C6.96352 12.6977 6.65116 12.3853 6.65116 12C6.65116 11.6147 6.96352 11.3023 7.34884 11.3023H11.3023V7.70676C11.3023 7.32144 11.6147 7.00908 12 7.00908C12.3853 7.00909 12.6977 7.32145 12.6977 7.70676V11.3023H15.9353C16.3206 11.3023 16.633 11.6147 16.633 12C16.633 12.3853 16.3206 12.6977 15.9353 12.6977H12.6977V16.2932C12.6977 16.6786 12.3853 16.9909 12 16.9909C11.6147 16.9909 11.3023 16.6786 11.3023 16.2932ZM22 12C22 17.5229 17.5229 22 12 22C6.47716 22 2 17.5229 2 12C2 6.47715 6.47715 2 12 2C17.5229 2 22 6.47716 22 12Z" fill="currentColor"/></svg>
