<svg viewBox="0 0 24 24" xmlns="http://www.w3.org/2000/svg"><path d="M19.1739 13.4309C19.1738 9.46918 15.9618 6.25786 12 6.25785C8.03825 6.25785 4.82625 9.46918 4.82606 13.4309C4.82606 17.3928 8.03813 20.6048 12 20.6048C15.9619 20.6048 19.1739 17.3928 19.1739 13.4309ZM11.3023 9.1376C11.3024 8.75238 11.6148 8.43992 12 8.43992C12.3852 8.43993 12.6976 8.75239 12.6977 9.1376V12.7332H15.5774C15.9626 12.7332 16.2749 13.0457 16.2751 13.4309C16.2751 13.8162 15.9628 14.1286 15.5774 14.1286H12C11.6147 14.1286 11.3023 13.8162 11.3023 13.4309V9.1376ZM5.94707 2.08175C6.28713 1.9006 6.70976 2.02969 6.89094 2.36973C7.07205 2.70972 6.94376 3.13236 6.60387 3.3136C5.32055 3.99724 4.17497 4.91333 3.22629 6.01529C2.97492 6.30718 2.53444 6.34013 2.24245 6.08888C1.95049 5.83753 1.91761 5.39705 2.16887 5.10504C3.23027 3.87215 4.51128 2.84664 5.94707 2.08175ZM17.1091 2.36973C17.2902 2.02969 17.7129 1.9006 18.0529 2.08175C19.4887 2.84665 20.7697 3.87216 21.8311 5.10504C22.0824 5.39705 22.0495 5.83752 21.7575 6.08888C21.4656 6.34013 21.0251 6.30718 20.7737 6.01529C19.825 4.91332 18.6794 3.99724 17.3961 3.3136C17.0562 3.13236 16.9279 2.70972 17.1091 2.36973ZM20.5693 13.4309C20.5693 18.1634 16.7325 22.0002 12 22.0002C7.26749 22.0002 3.43069 18.1634 3.43069 13.4309C3.43089 8.69854 7.26761 4.86248 12 4.86248C16.7324 4.8625 20.5691 8.69855 20.5693 13.4309Z" fill="currentColor"/></svg>
