<svg viewBox="0 0 24 24" xmlns="http://www.w3.org/2000/svg"><path d="M14.8621 20.6042C15.2472 20.6044 15.5604 20.9173 15.5604 21.3025C15.5602 21.6875 15.2471 21.9995 14.8621 21.9997H9.1375C8.75239 21.9996 8.44043 21.6875 8.44024 21.3025C8.44024 20.9172 8.75227 20.6043 9.1375 20.6042H14.8621ZM11.8621 2.0007C13.1358 1.97617 14.3938 2.29438 15.5037 2.91965C16.6135 3.54497 17.5366 4.45534 18.1756 5.55734C18.814 6.65858 19.1448 7.91135 19.1365 9.1843L19.1375 9.18527C19.1319 10.5071 18.7578 11.8016 18.0574 12.9226C17.435 13.9186 16.5757 14.7426 15.5604 15.3239V17.0534C15.5603 17.3814 15.4453 17.6974 15.2391 17.9489L15.1453 18.0525C14.8803 18.3174 14.521 18.4665 14.1463 18.4665H9.85332C9.52534 18.4665 9.20926 18.3523 8.95781 18.1462L8.8543 18.0525C8.58909 17.7874 8.44027 17.428 8.44024 17.0534V15.323C7.46716 14.7629 6.63688 13.9807 6.02129 13.0368C5.32539 11.9697 4.92792 10.7353 4.86992 9.46262C4.81195 8.19002 5.09633 6.92547 5.69219 5.79953C6.2881 4.67369 7.17379 3.72701 8.25859 3.0593C9.34355 2.39163 10.5884 2.02538 11.8621 2.0007ZM11.8895 3.39621C10.8647 3.41603 9.86295 3.71059 8.99004 4.24777C8.11734 4.78495 7.40402 5.54612 6.92461 6.45187C6.44525 7.35772 6.2178 8.37534 6.26445 9.39914C6.31111 10.4229 6.63046 11.4156 7.19024 12.2741C7.75014 13.1327 8.52988 13.8264 9.44805 14.282C9.68526 14.3998 9.83477 14.6421 9.83477 14.907V17.0534C9.8348 17.0581 9.83764 17.0621 9.84063 17.0652C9.84401 17.0685 9.84868 17.072 9.85332 17.072H14.1463C14.1509 17.072 14.1556 17.0694 14.159 17.0661C14.162 17.063 14.1648 17.0581 14.1648 17.0534V14.907C14.1648 14.6414 14.3154 14.3985 14.5535 14.281C15.5068 13.8113 16.3107 13.0844 16.8738 12.1833C17.4369 11.2822 17.7375 10.242 17.742 9.17941V9.17746C17.7491 8.15271 17.4816 7.1442 16.9676 6.25754C16.4535 5.37107 15.711 4.6375 14.8182 4.13449C13.9254 3.63168 12.9139 3.3765 11.8895 3.39621Z" fill="currentColor"/></svg>
