<svg viewBox="0 0 24 24" xmlns="http://www.w3.org/2000/svg"><path d="M19.1543 11.3027C19.5393 11.302 19.8524 11.613 19.8535 11.998C19.8555 12.9361 19.6713 13.8654 19.3134 14.7324C18.9554 15.5995 18.4301 16.3884 17.7666 17.0518L17.7656 17.0508C17.1024 17.7139 16.3153 18.2407 15.4482 18.5986C14.5818 18.9564 13.6531 19.1385 12.7158 19.1367V19.1377H12.6982V21.3027C12.698 21.6878 12.3851 22 12 22C11.6149 21.9999 11.3029 21.6878 11.3027 21.3027V19.1377H11.2841V19.1367C10.3468 19.1385 9.41818 18.9564 8.55173 18.5986C7.68467 18.2407 6.89659 17.7148 6.23337 17.0518V17.0508C5.57007 16.3875 5.0445 15.5995 4.68649 14.7324C4.32853 13.8654 4.14436 12.9361 4.14645 11.998C4.14752 11.6129 4.46146 11.3019 4.84665 11.3027C5.23166 11.3039 5.54282 11.6169 5.54196 12.002C5.54033 12.7561 5.68778 13.5031 5.97556 14.2002C6.26344 14.8974 6.68636 15.5311 7.2197 16.0645C7.75312 16.5978 8.38687 17.0208 9.08395 17.3086L9.34763 17.4102C9.96806 17.6312 10.6231 17.7436 11.2832 17.7422H12.7168C13.4711 17.7438 14.2187 17.5965 14.916 17.3086C15.6131 17.0209 16.2468 16.5978 16.7802 16.0645C17.3136 15.5311 17.7365 14.8974 18.0244 14.2002C18.3121 13.5031 18.4596 12.7561 18.458 12.002C18.4571 11.6167 18.769 11.3037 19.1543 11.3027ZM12 2C13.1338 2.00001 14.2216 2.45027 15.0234 3.25195C15.8251 4.05366 16.2752 5.14165 16.2754 6.27539V11.2842C16.2754 12.418 15.8251 13.5058 15.0234 14.3076C14.2216 15.1094 13.1338 15.5605 12 15.5605C10.8661 15.5605 9.77831 15.1094 8.97653 14.3076C8.17484 13.5058 7.72458 12.418 7.72458 11.2842V6.27539C7.72469 5.14173 8.17497 4.05364 8.97653 3.25195C9.77828 2.45033 10.8662 2.00004 12 2ZM12 3.39551C11.2363 3.39555 10.5039 3.6993 9.96384 4.23926C9.42395 4.77927 9.11922 5.51178 9.11911 6.27539V11.2842C9.11912 12.048 9.42379 12.7812 9.96384 13.3213C10.5039 13.8611 11.2364 14.165 12 14.165C12.7638 14.165 13.497 13.8613 14.0371 13.3213C14.5771 12.7812 14.8798 12.048 14.8799 11.2842V6.27539C14.8797 5.51186 14.5769 4.77925 14.0371 4.23926C13.497 3.69914 12.7638 3.39552 12 3.39551Z" fill="currentColor"/></svg>
