<svg viewBox="0 0 24 24" xmlns="http://www.w3.org/2000/svg"><path d="M4.8465 11.3025C5.23149 11.3037 5.5426 11.6167 5.54181 12.0017C5.54016 12.7558 5.68768 13.5029 5.9754 14.2C6.26326 14.8971 6.68627 15.5309 7.21954 16.0642C7.75301 16.5977 8.38664 17.0216 9.0838 17.3094L9.34747 17.4099C9.96795 17.6311 10.6229 17.7434 11.283 17.742H12.7156L12.7527 17.743C12.9948 17.7559 13.2383 17.7559 13.4803 17.743C13.8647 17.7227 14.193 18.0186 14.2137 18.4031C14.2341 18.7876 13.939 19.1158 13.5545 19.1365C13.274 19.1515 12.9923 19.1514 12.7117 19.1375H12.6981V21.3025C12.698 21.6878 12.3851 21.9998 11.9998 21.9998C11.6146 21.9997 11.3026 21.6877 11.3026 21.3025V19.1375H11.284V19.1365C10.3467 19.1383 9.41798 18.9571 8.55157 18.5994C7.68434 18.2414 6.89652 17.7138 6.23322 17.0506C5.57 16.3873 5.04432 15.5992 4.68634 14.7322C4.32846 13.8652 4.14421 12.9358 4.1463 11.9978C4.14751 11.6128 4.4614 11.3017 4.8465 11.3025ZM11.9998 1.99979C13.1336 1.9998 14.2215 2.45009 15.0233 3.25174C15.825 4.05346 16.2751 5.1414 16.2752 6.27518V11.283L16.2684 11.531C16.2358 12.1099 16.085 12.677 15.825 13.1971C15.6476 13.5518 15.4213 13.8781 15.1551 14.1687L16.907 15.9207C17.3274 15.4751 17.6753 14.9646 17.9334 14.406V14.4051C18.2813 13.6521 18.4605 12.8312 18.4578 12.0017C18.4569 11.6168 18.7682 11.304 19.1531 11.3025C19.5383 11.3013 19.8519 11.6127 19.8533 11.9978C19.8566 13.0308 19.6334 14.0531 19.2 14.991C18.8729 15.699 18.4304 16.3452 17.8943 16.907L21.7957 20.8094C22.068 21.0818 22.0681 21.5233 21.7957 21.7957C21.5233 22.0681 21.0819 22.068 20.8094 21.7957L7.93341 8.91971C7.9304 8.91675 7.9266 8.91393 7.92365 8.91092L2.20392 3.19119C1.9317 2.91887 1.93193 2.47733 2.20392 2.20486C2.47638 1.9324 2.91876 1.9324 3.19122 2.20486L7.72443 6.73709V6.27518C7.72454 5.14145 8.17475 4.05344 8.97638 3.25174C9.77813 2.45011 10.866 1.99983 11.9998 1.99979ZM8.46075 12.1385C8.81099 11.9783 9.22513 12.1322 9.38556 12.4822C9.67981 13.1256 10.2014 13.6396 10.8494 13.9236C11.2018 14.0785 11.3622 14.489 11.2078 14.8416C11.0532 15.1944 10.6418 15.3546 10.2889 15.2C9.32712 14.7784 8.55281 14.0183 8.11603 13.0633C7.95604 12.713 8.11068 12.2988 8.46075 12.1385ZM11.9998 3.39529C11.2362 3.39534 10.5037 3.69916 9.96368 4.23904C9.42379 4.77906 9.11907 5.51158 9.11896 6.27518V8.1326L14.1678 13.1814C14.3291 12.9976 14.4668 12.7932 14.577 12.573C14.7768 12.1734 14.8806 11.7327 14.8797 11.2859V6.27518C14.8796 5.51159 14.5768 4.77905 14.0369 4.23904C13.4968 3.69893 12.7637 3.3953 11.9998 3.39529Z" fill="currentColor"/></svg>
