<svg viewBox="0 0 24 24" xmlns="http://www.w3.org/2000/svg"><path d="M20.6047 10.5511H3.39535V19.8715C3.39544 20.0658 3.4726 20.252 3.60974 20.3894C3.74728 20.5269 3.93412 20.6046 4.12845 20.6047H19.8715C20.0659 20.6046 20.2528 20.5277 20.3903 20.3903C20.5277 20.2528 20.6046 20.0659 20.6047 19.8715V10.5511ZM6.29324 6.99092V2.69767C6.29324 2.31241 6.60567 2.00008 6.99092 2C7.37623 2 7.68859 2.31236 7.68859 2.69767V4.14662H14.1466C14.5319 4.14662 14.8443 4.45901 14.8443 4.8443C14.8443 5.22961 14.5319 5.54197 14.1466 5.54197H7.68859V6.99092C7.68859 7.37623 7.37623 7.68859 6.99092 7.68859C6.60567 7.68851 6.29324 7.37618 6.29324 6.99092ZM22 19.8715C21.9999 20.436 21.7759 20.9777 21.3768 21.3768C20.9777 21.7759 20.436 21.9999 19.8715 22H4.12845C3.56391 21.9999 3.02226 21.7758 2.62318 21.3768C2.22399 20.9777 2.00009 20.4359 2 19.8715V6.27507C2.00011 5.71062 2.22406 5.16894 2.62318 4.7698C3.02232 4.37069 3.56398 4.14671 4.12845 4.14662C4.51375 4.14662 4.82609 4.45901 4.82613 4.8443C4.82613 5.2055 4.55198 5.50257 4.20022 5.53834L4.05669 5.5456C3.88864 5.5622 3.73019 5.63682 3.60974 5.75727C3.47255 5.89469 3.39546 6.0809 3.39535 6.27507V9.1557H20.6047V6.27507C20.6045 6.08076 20.5269 5.89389 20.3894 5.75636C20.252 5.61924 20.0658 5.54206 19.8715 5.54197H17.7068V6.99092C17.7068 7.37619 17.3943 7.68852 17.0091 7.68859C16.6238 7.68859 16.3114 7.37623 16.3114 6.99092V2.69767C16.3114 2.31236 16.6238 2 17.0091 2C17.3943 2.00007 17.7068 2.3124 17.7068 2.69767V4.14662H19.8715C20.4359 4.14671 20.9777 4.37064 21.3768 4.7698C21.7758 5.16887 21.9999 5.71055 22 6.27507V19.8715Z" fill="currentColor"/></svg>
