<svg viewBox="0 0 24 24" xmlns="http://www.w3.org/2000/svg"><path d="M13.4307 20.2463C13.8159 20.2463 14.1288 20.5593 14.1289 20.9445C14.1288 21.3297 13.8159 21.6418 13.4307 21.6418H10.5693C10.1841 21.6418 9.87122 21.3297 9.87109 20.9445C9.87125 20.5593 10.1841 20.2463 10.5693 20.2463H13.4307ZM12 3.78827C13.7033 3.78827 15.3366 4.46575 16.541 5.6701C17.7454 6.87449 18.4228 8.50791 18.4229 10.2111V15.2199C18.4229 15.6042 18.575 15.9737 18.8467 16.2453C19.1182 16.5166 19.4871 16.669 19.8711 16.6691C20.2562 16.6693 20.5693 16.9822 20.5693 17.3674C20.569 17.7284 20.294 18.0251 19.9424 18.0607L19.8711 18.0646H4.12891C3.74396 18.0645 3.43101 17.7523 3.43066 17.3674C3.43066 16.9822 3.74374 16.6693 4.12891 16.6691C4.51293 16.669 4.88176 16.5167 5.15332 16.2453C5.42499 15.9736 5.57709 15.6041 5.57715 15.2199V10.2111C5.57717 8.50788 6.25464 6.87448 7.45898 5.6701C8.66338 4.46575 10.2967 3.78827 12 3.78827ZM12 5.18378C10.6668 5.18378 9.38803 5.71374 8.44531 6.65643C7.50264 7.59914 6.97267 8.87796 6.97266 10.2111V15.2199C6.97261 15.7347 6.83047 16.2337 6.57227 16.6691H17.4277C17.1695 16.2337 17.0274 15.7347 17.0273 15.2199V10.2111C17.0273 8.87795 16.4974 7.59912 15.5547 6.65643C14.612 5.71375 13.3332 5.18378 12 5.18378ZM5.86816 2.48846C6.18108 2.26383 6.61703 2.33579 6.8418 2.64862C7.06655 2.96159 6.9946 3.39749 6.68164 3.62225C5.66552 4.35216 4.83805 5.31396 4.2666 6.42694C3.69514 7.54022 3.39626 8.77419 3.39551 10.0256C3.39507 10.4106 3.08227 10.7228 2.69727 10.7228C2.33619 10.7224 2.03938 10.4476 2.00391 10.0959L2 10.0246C2.00089 8.55197 2.35195 7.10034 3.02441 5.79022C3.69704 4.47995 4.6719 3.34764 5.86816 2.48846ZM17.1582 2.64862C17.383 2.33578 17.8189 2.26382 18.1318 2.48846C19.328 3.34763 20.3029 4.47992 20.9756 5.79022C21.648 7.10035 21.9992 8.55194 22 10.0246C22.0001 10.4097 21.6878 10.7224 21.3027 10.7228C20.9177 10.7228 20.6049 10.4106 20.6045 10.0256C20.6038 8.77423 20.3058 7.54021 19.7344 6.42694C19.1629 5.31384 18.3346 4.35225 17.3184 3.62225C17.0054 3.39748 16.9334 2.96158 17.1582 2.64862Z" fill="currentColor"/></svg>
