<svg viewBox="0 0 24 24" xmlns="http://www.w3.org/2000/svg"><path d="M12 20.6047C12.3853 20.6047 12.6977 20.917 12.6977 21.3023C12.6977 21.6876 12.3853 22 12 22H9.13754C8.75232 21.9999 8.43986 21.6876 8.43986 21.3023C8.43986 20.9171 8.75232 20.6048 9.13754 20.6047H12ZM4.14662 15.5783V10.5692C4.1466 9.29585 4.52501 8.05049 5.23401 6.99273C5.94297 5.9351 6.9505 5.11194 8.12827 4.62809C8.48465 4.48168 8.89207 4.65237 9.03852 5.00872C9.18491 5.36508 9.0151 5.7725 8.65879 5.91897C7.73685 6.29771 6.94811 6.94242 6.39317 7.77035C5.83832 8.59823 5.54196 9.5726 5.54197 10.5692V15.5783C5.5419 16.0931 5.39958 16.5919 5.14135 17.0273H15.9962C15.738 16.5919 15.5956 16.093 15.5956 15.5783C15.5956 15.193 15.908 14.8807 16.2932 14.8806C16.6786 14.8806 16.9909 15.193 16.9909 15.5783C16.991 15.9623 17.1437 16.3305 17.4152 16.6021C17.6868 16.8737 18.0556 17.0272 18.4399 17.0273C18.8252 17.0273 19.1375 17.3396 19.1375 17.7249C19.1373 18.1101 18.825 18.4226 18.4399 18.4226H2.69767C2.3125 18.4226 2.00022 18.1101 2 17.7249C2 17.3639 2.27433 17.0668 2.62591 17.0309L2.84121 17.02C3.17285 16.987 3.48471 16.8398 3.72238 16.6021C3.99388 16.3305 4.14651 15.9623 4.14662 15.5783ZM20.6047 7.34884C20.6047 5.16538 18.8346 3.39535 16.6512 3.39535C15.8117 3.39535 15.0339 3.65774 14.3937 4.10392L19.8952 9.60629C20.3415 8.96605 20.6047 8.18849 20.6047 7.34884ZM12.6977 7.34884C12.6977 9.53229 14.4677 11.3023 16.6512 11.3023C17.4908 11.3023 18.2684 11.0392 18.9086 10.5928L13.4062 5.09048C12.9598 5.73075 12.6977 6.5091 12.6977 7.34884ZM22 7.34884C22 8.79375 21.4249 10.1027 20.4938 11.0652C20.4758 11.0886 20.4571 11.1119 20.4357 11.1334C20.4142 11.1548 20.3909 11.1734 20.3676 11.1915C19.405 12.1226 18.0961 12.6977 16.6512 12.6977C13.6971 12.6977 11.3023 10.3029 11.3023 7.34884C11.3023 5.90392 11.8765 4.59404 12.8076 3.63154C12.8257 3.60817 12.8452 3.58485 12.8666 3.56341C12.8879 3.54217 12.9107 3.52319 12.9339 3.50527C13.8964 2.57419 15.2062 2 16.6512 2C19.6052 2 22 4.39475 22 7.34884Z" fill="currentColor"/></svg>
