<svg viewBox="0 0 24 24" xmlns="http://www.w3.org/2000/svg"><path d="M12 20.6047C12.3853 20.6047 12.6977 20.917 12.6977 21.3023C12.6977 21.6876 12.3853 22 12 22H9.13754C8.75231 21.9999 8.43986 21.6876 8.43986 21.3023C8.43986 20.9171 8.75231 20.6048 9.13754 20.6047H12ZM4.14662 15.5783V10.5692C4.145 9.11897 4.63416 7.71072 5.5347 6.57395C6.43549 5.43704 7.69509 4.63837 9.10756 4.30832C9.48276 4.22067 9.85837 4.45366 9.94604 4.82885C10.0337 5.20401 9.80063 5.57961 9.42551 5.66733C8.31985 5.92564 7.33358 6.55063 6.62845 7.44059C5.92352 8.33049 5.54059 9.43302 5.54197 10.5683V15.5783C5.54191 16.0931 5.39956 16.5918 5.14135 17.0273H15.9962C15.738 16.5918 15.5956 16.093 15.5956 15.5783V14.8625C15.5956 14.4772 15.908 14.1649 16.2932 14.1648C16.6786 14.1648 16.9909 14.4771 16.9909 14.8625V15.5783C16.991 15.9625 17.1435 16.3314 17.4152 16.603C17.6868 16.8746 18.0556 17.0272 18.4399 17.0273C18.8252 17.0273 19.1375 17.3396 19.1375 17.7249C19.1374 18.1101 18.8251 18.4226 18.4399 18.4226H2.69767C2.31245 18.4226 2.00015 18.1101 2 17.7249C2 17.3639 2.27432 17.0668 2.62591 17.0309L2.84121 17.02C3.17278 16.987 3.48473 16.8406 3.72238 16.603C3.99403 16.3314 4.14653 15.9625 4.14662 15.5783ZM16.3114 11.2842V7.68859H12.7158C12.3305 7.68859 12.0182 7.37623 12.0182 6.99092C12.0183 6.60567 12.3306 6.29324 12.7158 6.29324H16.3114V2.69767C16.3114 2.31236 16.6238 2 17.0091 2C17.3943 2.00008 17.7068 2.31241 17.7068 2.69767V6.29324H21.3023C21.6876 6.29324 21.9999 6.60567 22 6.99092C22 7.37623 21.6876 7.68859 21.3023 7.68859H17.7068V11.2842C17.7068 11.6694 17.3943 11.9817 17.0091 11.9818C16.6238 11.9818 16.3114 11.6695 16.3114 11.2842Z" fill="currentColor"/></svg>
