<svg viewBox="0 0 24 24" xmlns="http://www.w3.org/2000/svg"><path fill-rule="evenodd" clip-rule="evenodd" d="M19.8689 3.19412C20.1278 2.93529 20.5476 2.93529 20.8064 3.19412C21.0652 3.45296 21.0652 3.87281 20.8064 4.13162L12.4373 12.4998L20.8064 20.868C21.0653 21.1268 21.0653 21.5466 20.8064 21.8055C20.5476 22.0642 20.1277 22.0643 19.8689 21.8055L11.5008 13.4373L3.13161 21.8055C2.87277 22.0643 2.45296 22.0643 2.19411 21.8055C1.93531 21.5466 1.93528 21.1268 2.19411 20.868L10.5633 12.4998L2.19411 4.13162C1.93533 3.87285 1.93544 3.45297 2.19411 3.19412C2.45296 2.93529 2.87277 2.93529 3.13161 3.19412L11.5008 11.5623L19.8689 3.19412Z" fill="currentColor"/></svg>
