<svg viewBox="0 0 24 24" xmlns="http://www.w3.org/2000/svg"><path d="M11.9975 2.00292C13.5019 2.00212 14.987 2.34113 16.3422 2.99413C17.6976 3.64721 18.8887 4.59718 19.8256 5.77441C20.7624 6.95156 21.4211 8.32573 21.7534 9.79296C22.0854 11.2601 22.082 12.7834 21.7436 14.249C21.4052 15.7148 20.7401 17.0859 19.7983 18.2588C18.8564 19.432 17.6613 20.3783 16.3032 21.0254C14.945 21.6725 13.4579 22.0044 11.9536 21.9971C10.5263 21.99 9.11757 21.6771 7.82269 21.081L2.82172 21.9863C2.57476 22.0308 2.32228 21.9388 2.16156 21.7461C2.00113 21.5534 1.95636 21.2894 2.04437 21.0547L3.4809 17.2305C2.60027 15.7962 2.09541 14.1607 2.01508 12.4756C1.92909 10.6695 2.33325 8.87319 3.18695 7.27929C4.04075 5.68541 5.31161 4.35302 6.86273 3.42382C8.41409 2.49458 10.1891 2.00349 11.9975 2.00292ZM11.9975 3.39843C10.4416 3.39895 8.91431 3.82157 7.57953 4.62109C6.24498 5.42062 5.15199 6.56708 4.41742 7.93847C3.68278 9.31003 3.3336 10.856 3.40765 12.4101C3.48183 13.964 3.97679 15.4684 4.83832 16.7637C4.96253 16.9504 4.98949 17.1865 4.91058 17.3965L3.78363 20.3935L7.79633 19.6689L7.9057 19.6582C8.01587 19.656 8.12603 19.6798 8.22601 19.7285C9.389 20.2967 10.666 20.5951 11.9604 20.6016C13.2547 20.6079 14.5341 20.3224 15.7026 19.7656C16.8711 19.2089 17.8991 18.395 18.7094 17.3857C19.5199 16.3764 20.093 15.1968 20.3842 13.9355C20.6755 12.6743 20.6778 11.363 20.392 10.1006C20.1061 8.83818 19.5398 7.65628 18.7338 6.64355C17.9277 5.63068 16.9029 4.8129 15.7368 4.25097C14.5705 3.68906 13.292 3.39769 11.9975 3.39843ZM8.0307 10.9404C8.61539 10.9404 9.09027 11.4153 9.09027 12C9.09018 12.5847 8.61529 13.0586 8.0307 13.0586C7.48298 13.0582 7.0323 12.6419 6.97797 12.1084L6.97308 12L6.97797 11.8916C7.03213 11.358 7.48285 10.9408 8.0307 10.9404ZM12.0024 10.9404C12.5871 10.9404 13.061 11.4153 13.061 12C13.0609 12.5847 12.587 13.0586 12.0024 13.0586C11.4545 13.0584 11.004 12.6419 10.9496 12.1084L10.9448 12L10.9496 11.8916C11.0038 11.3579 11.4544 10.9406 12.0024 10.9404ZM16.0825 10.9463C16.6161 11.0005 17.0327 11.4517 17.0327 12C17.0326 12.5848 16.5583 13.0584 15.9741 13.0586C15.4262 13.0584 14.9747 12.642 14.9203 12.1084L14.9155 12L14.9203 11.8916C14.9745 11.3578 15.426 10.9406 15.9741 10.9404L16.0825 10.9463Z" fill="currentColor"/></svg>
