<svg viewBox="0 0 24 24" xmlns="http://www.w3.org/2000/svg"><path d="M12.7487 2.00684C13.121 2.03598 13.4806 2.1623 13.7897 2.375C14.1425 2.61786 14.4136 2.96189 14.5681 3.36133L15.0944 4.71973L16.7575 5.67773L18.2057 5.45703L18.2175 5.45605C18.6355 5.39933 19.0612 5.46689 19.4401 5.65234C19.7717 5.81488 20.0552 6.06153 20.2624 6.36523L20.3464 6.49902L20.3483 6.50195L20.9216 7.50293H20.9206C21.1358 7.87224 21.235 8.29869 21.2048 8.72559C21.1744 9.15302 21.0151 9.56157 20.7487 9.89746L19.8532 11.0391V12.9561L20.7722 14.0947L20.7751 14.0986C21.0433 14.4352 21.2036 14.8454 21.2341 15.2744C21.2642 15.7011 21.163 16.1269 20.9479 16.4961L20.9489 16.4971L20.3766 17.498L20.3747 17.501C20.1897 17.8207 19.925 18.0857 19.6081 18.2715L19.4694 18.3477C19.0906 18.5331 18.6642 18.6008 18.2458 18.5439L18.235 18.543L16.7868 18.3213L15.1227 19.2793L14.5964 20.6367L14.5974 20.6377C14.443 21.0375 14.1713 21.3819 13.8181 21.625C13.4648 21.8681 13.0456 21.9987 12.6169 22H11.4118C10.983 21.9987 10.5639 21.8681 10.2106 21.625C9.85747 21.3819 9.5857 21.0375 9.43134 20.6377V20.6367L8.90497 19.2793L7.24091 18.3213L5.79364 18.543L5.7829 18.5439C5.36449 18.6008 4.93807 18.5331 4.55927 18.3477C4.18038 18.1619 3.86545 17.8663 3.65399 17.501L3.65204 17.498L3.07977 16.4971L3.08075 16.4961C2.86562 16.1267 2.76546 15.7009 2.79559 15.2744C2.82607 14.8453 2.98562 14.4351 3.2536 14.0986L4.14716 12.96V11.0439L3.22821 9.90527L3.22626 9.90137C2.95805 9.56479 2.79776 9.15488 2.76727 8.72559C2.73712 8.2989 2.83612 7.87241 3.05145 7.50293L3.62372 6.50195L3.62567 6.49902C3.83712 6.13371 4.15194 5.83807 4.53094 5.65234C4.86238 5.49 5.2298 5.41823 5.59637 5.44043L5.7536 5.45605L5.76532 5.45703L7.21454 5.67773L8.90497 4.71777L9.43134 3.3623L9.49481 3.21582C9.65504 2.8785 9.90148 2.58777 10.2106 2.375C10.5639 2.13192 10.983 2.00127 11.4118 2H12.5886L12.7487 2.00684ZM11.3054 3.40332C11.1969 3.4201 11.0928 3.4617 11.0016 3.52441C10.88 3.60817 10.7862 3.72748 10.7331 3.86523V3.86621L10.1179 5.4541C10.0598 5.60386 9.95086 5.72922 9.81122 5.80859L7.69305 7.01074C7.55684 7.08799 7.39864 7.11734 7.24384 7.09375L5.56708 6.83789L5.4577 6.83105C5.34971 6.83253 5.24299 6.85836 5.1452 6.90625C5.01466 6.97022 4.90556 7.07145 4.8327 7.19727L4.26239 8.19531L4.25751 8.2041C4.18268 8.33177 4.14843 8.47931 4.15887 8.62695C4.16927 8.77332 4.22346 8.91303 4.31415 9.02832L5.38739 10.3604C5.48717 10.4843 5.5426 10.6388 5.54266 10.7979V13.2021C5.5426 13.3583 5.48964 13.511 5.39325 13.6338L4.34833 14.9639L4.3454 14.9678C4.25308 15.0837 4.19867 15.2252 4.18817 15.373C4.18032 15.484 4.19705 15.5949 4.23798 15.6973L4.2868 15.7959L4.29169 15.8047L4.862 16.8027L4.92255 16.8916C4.98989 16.9762 5.07559 17.0457 5.17352 17.0938C5.27163 17.1418 5.3789 17.1675 5.487 17.1689L5.5954 17.1621L7.27216 16.9062L7.39032 16.8984C7.50737 16.9006 7.62269 16.9322 7.72528 16.9912L9.81415 18.1924C9.95229 18.2719 10.0602 18.3973 10.1179 18.5459L10.7331 20.1338V20.1348C10.7863 20.2726 10.8801 20.3919 11.0016 20.4756C11.1233 20.5592 11.2681 20.604 11.4157 20.6045H12.614C12.7615 20.6039 12.9056 20.5591 13.027 20.4756C13.1486 20.3919 13.2424 20.2726 13.2956 20.1348V20.1338L13.9118 18.5459L13.9636 18.4385C14.0244 18.3373 14.1111 18.2519 14.2145 18.1924L16.3034 16.9912L16.4099 16.9414C16.5198 16.9009 16.6394 16.8884 16.7565 16.9062L18.4343 17.1621C18.578 17.1815 18.7245 17.1577 18.8552 17.0938L18.9489 17.0391C19.0379 16.9777 19.1121 16.8969 19.1667 16.8027L19.737 15.8047L19.7419 15.7959C19.8169 15.668 19.8519 15.5206 19.8415 15.373C19.831 15.2262 19.7764 15.0861 19.6852 14.9707L18.613 13.6396C18.5131 13.5157 18.4587 13.3613 18.4587 13.2021V10.7979C18.4587 10.6417 18.5107 10.489 18.6071 10.3662L19.652 9.03613L19.655 9.03223C19.7473 8.91638 19.8026 8.77488 19.8132 8.62695C19.8236 8.47947 19.7886 8.33197 19.7136 8.2041L19.7097 8.19531L19.1384 7.19727L19.0778 7.1084C19.0104 7.02362 18.924 6.95433 18.8259 6.90625C18.6954 6.84252 18.5488 6.81843 18.405 6.83789L16.7282 7.09375C16.5719 7.11759 16.4112 7.08764 16.2741 7.00879L14.1852 5.80762C14.0471 5.72813 13.9401 5.60272 13.8825 5.4541L13.2673 3.86621L13.2663 3.86523C13.2131 3.72741 13.1204 3.60816 12.9987 3.52441C12.9073 3.46153 12.8028 3.42006 12.694 3.40332L12.5847 3.39551H11.4157L11.3054 3.40332ZM12.0007 8.43945C12.7046 8.43956 13.3929 8.64898 13.9782 9.04004C14.5634 9.43112 15.0193 9.98743 15.2888 10.6377C15.5581 11.2881 15.6292 12.0049 15.4919 12.6953C15.3544 13.3855 15.0149 14.0199 14.5173 14.5176C14.0194 15.0153 13.3844 15.3539 12.694 15.4912C12.0036 15.6284 11.2877 15.5574 10.6374 15.2881C9.98718 15.0186 9.43078 14.5628 9.03973 13.9775C8.64873 13.3922 8.44012 12.7039 8.44012 12C8.44012 11.0558 8.81548 10.15 9.48309 9.48242C10.1507 8.81496 11.0567 8.43945 12.0007 8.43945ZM12.0007 9.83496C11.4266 9.83496 10.8753 10.0638 10.4694 10.4697C10.0637 10.8756 9.83563 11.4261 9.83563 12C9.83563 12.4281 9.96302 12.8472 10.2009 13.2031C10.4386 13.5587 10.7765 13.8353 11.1716 13.999C11.5671 14.1628 12.0027 14.2065 12.4225 14.123C12.8423 14.0395 13.2283 13.8329 13.5309 13.5303C13.8334 13.2277 14.0402 12.8425 14.1237 12.4229C14.2072 12.0031 14.1634 11.5673 13.9997 11.1719C13.8359 10.7766 13.5586 10.438 13.2028 10.2002C12.8471 9.96256 12.4285 9.83507 12.0007 9.83496Z" fill="currentColor"/></svg>
