<svg viewBox="0 0 24 24" xmlns="http://www.w3.org/2000/svg"><path d="M2.20441 2.20441C2.47685 1.93196 2.91827 1.93199 3.19073 2.20441L6.17999 5.19269C7.02176 4.75333 8.01042 4.56424 9.06671 4.75226C10.1631 4.94745 11.2803 5.53941 12.3548 6.58722C13.5939 5.37842 14.8918 4.77813 16.1409 4.69073C17.5667 4.59113 18.8264 5.16878 19.7327 6.07843C21.5149 7.86716 22.0516 11.1026 19.7776 13.3226C19.7731 13.327 19.7676 13.331 19.763 13.3353L16.9359 15.9485L21.7952 20.8089C22.0677 21.0814 22.0677 21.5228 21.7952 21.7952C21.5228 22.0677 21.0814 22.0677 20.8089 21.7952L5.65167 6.638C5.59128 6.59376 5.53478 6.5417 5.48956 6.47687C5.48895 6.47599 5.48821 6.47482 5.48761 6.47394L2.20441 3.19073C1.93199 2.91827 1.93196 2.47685 2.20441 2.20441ZM3.80792 7.86945C3.95094 7.51183 4.35645 7.33793 4.71417 7.48077C5.07179 7.62381 5.24573 8.0293 5.10284 8.38702C4.5931 9.66331 4.74135 11.1758 5.90265 12.3157L11.8568 17.8343C12.1382 18.0948 12.5737 18.0952 12.8548 17.8343V17.8333L13.6702 17.0755C13.9525 16.8132 14.3943 16.8294 14.6566 17.1116C14.9187 17.3939 14.9017 17.8347 14.6194 18.097L13.804 18.8558C12.988 19.6138 11.7256 19.6147 10.9085 18.8577L4.94855 13.3353C4.94416 13.3312 4.93915 13.3267 4.93488 13.3226C3.30659 11.7328 3.11862 9.59524 3.80792 7.86945ZM16.2376 6.08234C15.2673 6.15035 14.0972 6.68218 12.8792 8.06183C12.7468 8.21168 12.5558 8.29718 12.3558 8.29718C12.1561 8.29697 11.9656 8.21148 11.8333 8.06183C10.7559 6.84144 9.7155 6.28538 8.82257 6.12628C8.25665 6.02555 7.72139 6.07803 7.23663 6.24933L15.9476 14.9612L18.8128 12.3148C20.4104 10.7446 20.0911 8.41559 18.7444 7.06378C18.085 6.40193 17.2081 6.01448 16.2376 6.08234Z" fill="currentColor"/></svg>
