<svg viewBox="0 0 24 24" xmlns="http://www.w3.org/2000/svg"><path d="M7.73947 3.55312C9.14171 3.6548 10.604 4.34134 12.0051 5.73183C13.4059 4.34141 14.8677 3.65651 16.2688 3.55702C17.8449 3.44528 19.2395 4.08272 20.2483 5.08827C22.2321 7.06654 22.8539 10.6446 20.3938 13.1049C20.3857 13.1129 20.3768 13.1206 20.3684 13.1283L12.4738 20.2787C12.208 20.5195 11.8031 20.5195 11.5373 20.2787L3.64279 13.1283C3.63437 13.1207 3.62543 13.1129 3.6174 13.1049C1.1443 10.6315 1.76352 7.05214 3.75412 5.07558C4.76529 4.07184 6.1621 3.43894 7.73947 3.55312ZM7.63889 4.94472C6.51517 4.86333 5.50041 5.30742 4.73654 6.06581C3.17954 7.61184 2.78874 10.2918 4.59494 12.1088L12.0051 18.8217L19.4104 12.1137C21.2073 10.3123 20.8208 7.62978 19.2629 6.07655C18.5002 5.3162 17.489 4.86933 16.3684 4.94862C15.2476 5.02811 13.9106 5.6415 12.5285 7.20839C12.3961 7.35854 12.2053 7.44472 12.0051 7.44472C11.8051 7.44452 11.6149 7.35836 11.4826 7.20839C10.1009 5.64188 8.76259 5.02623 7.63889 4.94472Z" fill="currentColor"/></svg>
