<svg viewBox="0 0 24 24" xmlns="http://www.w3.org/2000/svg"><path d="M2 19.8952V4.10478C2.00009 3.54654 2.22212 3.01159 2.61686 2.61686C3.01159 2.22212 3.54654 2.00009 4.10478 2H10.5649C10.9347 2.00019 11.2346 2.29986 11.2346 2.6697C11.2346 3.03954 10.9347 3.33922 10.5649 3.33941H4.10478C3.90187 3.3395 3.70704 3.42006 3.56355 3.56355C3.42006 3.70704 3.3395 3.90187 3.33941 4.10478V19.8952C3.3395 20.0981 3.42014 20.2931 3.56355 20.4364C3.70711 20.5799 3.90196 20.6605 4.10478 20.6606H19.8952C20.0981 20.6605 20.293 20.5799 20.4364 20.4364C20.5799 20.293 20.6605 20.0981 20.6606 19.8952V13.4351C20.6608 13.0653 20.9605 12.7654 21.3303 12.7654C21.7001 12.7654 21.9998 13.0653 22 13.4351V19.8952C21.9999 20.4535 21.7778 20.9885 21.3831 21.3831C20.9885 21.7778 20.4535 21.9999 19.8952 22H4.10478C3.54648 21.9999 3.01153 21.7777 2.61686 21.3831C2.22207 20.9884 2.00009 20.4534 2 19.8952ZM22 7.69385C21.9999 8.06374 21.7002 8.36355 21.3303 8.36355C20.9604 8.36354 20.6607 8.06373 20.6606 7.69385V4.28702L12.4738 12.4738C12.2122 12.7354 11.7878 12.7354 11.5262 12.4738C11.2646 12.2122 11.2646 11.7878 11.5262 11.5262L19.713 3.33941H16.3062C15.9363 3.33932 15.6364 3.0396 15.6364 2.6697C15.6364 2.2998 15.9363 2.00009 16.3062 2H21.3303C21.7003 2 22 2.29975 22 2.6697V7.69385Z" fill="currentColor"/></svg>
