<svg viewBox="0 0 24 24" xmlns="http://www.w3.org/2000/svg"><path d="M5.78188 10.0755C6.05429 9.80331 6.49578 9.80334 6.76821 10.0755C7.04062 10.348 7.04064 10.7904 6.76821 11.0628L4.67251 13.1585C2.96946 14.8621 2.96915 17.6241 4.67251 19.3275C6.3759 21.0309 9.13784 21.0305 10.8415 19.3275L12.9381 17.2308C13.2105 16.9588 13.6521 16.9588 13.9245 17.2308C14.1968 17.5032 14.1967 17.9457 13.9245 18.2181L11.8288 20.3138C9.58024 22.562 5.93457 22.5622 3.68618 20.3138C1.43782 18.0654 1.43801 14.4197 3.68618 12.1712L5.78188 10.0755ZM14.3688 8.64389C14.6413 8.37168 15.0837 8.37153 15.3561 8.64389C15.6283 8.91617 15.628 9.35775 15.3561 9.63022L9.63052 15.3558C9.35806 15.6279 8.91654 15.628 8.64419 15.3558C8.37186 15.0835 8.37209 14.642 8.64419 14.3695L14.3688 8.64389ZM12.1706 3.68588C14.4189 1.43752 18.0645 1.43777 20.3131 3.68588C22.5616 5.93438 22.5616 9.57996 20.3131 11.8285L18.2174 13.9242C17.945 14.1964 17.5035 14.1964 17.2311 13.9242C16.959 13.6517 16.9589 13.2102 17.2311 12.9378L19.3268 10.8412C21.0301 9.13757 21.0303 6.37571 19.3268 4.67221C17.6232 2.96908 14.8613 2.96903 13.1579 4.67221L11.0622 6.76791C10.7897 7.04037 10.3473 7.0413 10.0749 6.76889C9.80263 6.49647 9.80263 6.05401 10.0749 5.78159L12.1706 3.68588Z" fill="currentColor"/></svg>
