<svg viewBox="0 0 24 24" xmlns="http://www.w3.org/2000/svg"><path d="M5.78184 10.0761C6.05428 9.80359 6.49591 9.80361 6.76837 10.0761C7.04077 10.3485 7.0408 10.7901 6.76837 11.0626L4.67267 13.1583C2.9695 14.8618 2.9693 17.624 4.67267 19.3273C6.37607 21.0307 9.1382 21.0305 10.8417 19.3273L12.9374 17.2307C13.2098 16.9585 13.6515 16.9586 13.9239 17.2307C14.1964 17.5031 14.1964 17.9457 13.9239 18.2182L11.8282 20.3139C9.57983 22.562 5.93443 22.5621 3.68613 20.3139C1.43785 18.0656 1.43806 14.4202 3.68613 12.1718L5.78184 10.0761ZM2.20451 2.20466C2.47696 1.9322 2.91859 1.9322 3.19104 2.20466L11.9999 11.0135L14.3691 8.64439C14.6415 8.37215 15.0832 8.37201 15.3556 8.64439C15.628 8.91678 15.6278 9.35846 15.3556 9.63093L12.9865 12.0001L21.7953 20.8089C22.0678 21.0814 22.0678 21.523 21.7953 21.7955C21.5229 22.0679 21.0813 22.0679 20.8088 21.7955L2.20451 3.19119C1.93206 2.91874 1.93206 2.47711 2.20451 2.20466ZM9.36008 13.6534C9.63253 13.381 10.0742 13.3809 10.3466 13.6534C10.619 13.9258 10.619 14.3675 10.3466 14.6399L9.63078 15.3557C9.35832 15.628 8.91663 15.6281 8.64425 15.3557C8.37186 15.0834 8.37201 14.6417 8.64425 14.3692L9.36008 13.6534ZM12.1707 3.68628C14.4191 1.43789 18.0652 1.43793 20.3137 3.68628C22.5619 5.93456 22.5617 9.57998 20.3137 11.8284L18.218 13.9241C17.9456 14.1965 17.503 14.1965 17.2306 13.9241C16.9585 13.6516 16.9583 13.2099 17.2306 12.9376L19.3263 10.8418C21.0297 9.13835 21.0297 6.3763 19.3263 4.67281C17.6227 2.96984 14.8615 2.96986 13.1581 4.67281L11.0624 6.76852C10.7901 7.04085 10.3484 7.04146 10.0759 6.76943C9.80344 6.49699 9.80346 6.05445 10.0759 5.78198L12.1707 3.68628Z" fill="currentColor"/></svg>
