<svg viewBox="0 0 24 24" xmlns="http://www.w3.org/2000/svg"><path d="M11.3023 21.3023V2.69774C11.3023 2.31243 11.6147 2.00007 12 2.00007C12.3853 2.00007 12.6976 2.31243 12.6976 2.69774V21.3023C12.6976 21.6876 12.3853 22 12 22C11.6147 22 11.3023 21.6876 11.3023 21.3023ZM11.5595 2.15632C11.8335 1.93285 12.238 1.94905 12.4934 2.20447L17.5024 7.21353C17.7747 7.48598 17.7748 7.92769 17.5024 8.20009C17.2301 8.47247 16.7884 8.47233 16.5159 8.20009L12.0001 3.68429L7.48432 8.20009C7.21188 8.47245 6.77021 8.47245 6.49777 8.20009C6.22533 7.92765 6.22538 7.486 6.49777 7.21353L11.5068 2.20447L11.5595 2.15632Z" fill="currentColor"/></svg>
