<svg viewBox="0 0 24 24" xmlns="http://www.w3.org/2000/svg"><path d="M8.28653 2.20431C8.55897 1.93187 9.00063 1.93192 9.2731 2.20431C9.54556 2.47677 9.54556 2.91842 9.2731 3.19088L6.88752 5.57736H12.0003C13.6241 5.5774 15.2113 6.0597 16.5616 6.96183C17.9119 7.8641 18.9651 9.14612 19.5867 10.6465C20.2081 12.1469 20.3705 13.7984 20.0536 15.3913C19.7368 16.984 18.9543 18.4474 17.8061 19.5956C16.6578 20.7437 15.1946 21.5255 13.6018 21.8422C12.0091 22.159 10.3582 21.9965 8.85794 21.3752C7.35756 20.7537 6.07465 19.7014 5.17238 18.351C4.27013 17.0008 3.78882 15.4128 3.78882 13.7888C3.78893 13.4036 4.10125 13.0911 4.4865 13.0911C4.87175 13.0911 5.18408 13.4036 5.18419 13.7888C5.18419 15.1367 5.58375 16.4545 6.33246 17.5752C7.0814 18.6961 8.14666 19.5702 9.39211 20.0861C10.6373 20.6018 12.0075 20.7369 13.3293 20.474H13.3302C14.6522 20.2111 15.8664 19.5612 16.8196 18.6081C17.7726 17.655 18.4217 16.4407 18.6846 15.1188C18.9476 13.7966 18.8125 12.4261 18.2967 11.1807C17.7807 9.93529 16.9075 8.87081 15.7867 8.12192C14.6659 7.37304 13.3482 6.97278 12.0003 6.97274H6.88662L9.2731 9.36013C9.54556 9.63259 9.54556 10.0742 9.2731 10.3467C9.00063 10.6191 8.55896 10.6191 8.28653 10.3467L4.70907 6.76924C4.57823 6.6384 4.50467 6.46009 4.50467 6.27505C4.50478 6.09016 4.57833 5.91251 4.70907 5.78176L8.28653 2.20431Z" fill="currentColor"/></svg>
