<svg viewBox="0 0 24 24" xmlns="http://www.w3.org/2000/svg"><path d="M14.7264 2.20404C14.9989 1.93194 15.4404 1.9319 15.7128 2.20404L19.2909 5.78217C19.4215 5.91289 19.4949 6.09052 19.495 6.27533C19.4949 6.46025 19.4217 6.63871 19.2909 6.76947L15.7128 10.3466C15.4403 10.6188 14.9988 10.6188 14.7264 10.3466C14.4542 10.0742 14.4542 9.63272 14.7264 9.36029L17.1132 6.9726H11.9999C10.6519 6.9726 9.33361 7.37313 8.21277 8.12201C7.09206 8.87093 6.21785 9.9353 5.70203 11.1806C5.18621 12.426 5.05136 13.797 5.31433 15.1191C5.57736 16.4411 6.22742 17.6562 7.18054 18.6093C8.13367 19.5621 9.34807 20.2107 10.6698 20.4736C11.9919 20.7366 13.3628 20.6017 14.6083 20.0859L14.8397 19.9853C15.9854 19.4601 16.9648 18.6257 17.6669 17.5751C18.4156 16.4545 18.8162 15.1368 18.8163 13.789C18.8164 13.4038 19.1283 13.0908 19.5135 13.0908C19.8986 13.091 20.2107 13.4039 20.2108 13.789C20.2108 15.4128 19.7291 17.0004 18.827 18.3505C17.9249 19.7007 16.6426 20.7534 15.1425 21.3749C13.6421 21.9963 11.9902 22.1586 10.3973 21.8417C8.80472 21.525 7.34143 20.7437 6.19324 19.5956C5.04502 18.4475 4.26307 16.9841 3.94617 15.3915C3.62935 13.7988 3.79152 12.1468 4.41296 10.6464C5.03441 9.14623 6.08727 7.86407 7.43738 6.96185C8.78771 6.0596 10.3758 5.57709 11.9999 5.57709H17.1122L14.7264 3.19037C14.4543 2.91795 14.4542 2.47644 14.7264 2.20404Z" fill="currentColor"/></svg>
