<svg viewBox="0 0 24 24" xmlns="http://www.w3.org/2000/svg"><path d="M2.20398 6.49757C2.47644 6.22511 2.91882 6.22511 3.19128 6.49757L8.41003 11.7163L8.42273 11.7212C8.42706 11.7211 8.43128 11.7193 8.43445 11.7163L11.7264 8.42433C11.9905 8.16564 12.346 8.02104 12.7157 8.02101C13.0391 8.02108 13.3516 8.13158 13.6014 8.33253L13.705 8.42433L13.7098 8.43019L20.6044 15.3247V11.2847C20.6044 10.8994 20.9173 10.5864 21.3026 10.5864C21.6877 10.5866 21.9998 10.8995 21.9999 11.2847V17.0093C21.9997 17.3944 21.6877 17.7064 21.3026 17.7066H15.577C15.1922 17.7061 14.8799 17.3942 14.8798 17.0093C14.8798 16.6242 15.1921 16.3124 15.577 16.312H19.618L12.7274 9.4214C12.7242 9.41839 12.7201 9.41659 12.7157 9.41652C12.7111 9.41654 12.7063 9.41824 12.703 9.4214L9.41687 12.7075L9.41199 12.7134C9.14796 12.9722 8.79245 13.1166 8.42273 13.1167C8.05304 13.1167 7.69758 12.972 7.43347 12.7134L2.20398 7.4839C1.93195 7.21143 1.93172 6.7699 2.20398 6.49757Z" fill="currentColor"/></svg>
