<svg viewBox="0 0 24 24" xmlns="http://www.w3.org/2000/svg"><path d="M11.6327 2.10335C11.8942 1.94156 12.2397 1.96879 12.4735 2.1844L21.3173 10.3416L21.3183 10.3426C21.5349 10.5435 21.7078 10.7884 21.8251 11.0594C21.9415 11.3287 22.0013 11.6201 21.9999 11.9139V19.8719C21.9997 20.436 21.7751 20.9767 21.3759 21.3758C20.9769 21.7748 20.4363 21.9996 19.872 21.9998H4.12881C3.5643 21.9997 3.02202 21.7758 2.62296 21.3768C2.22393 20.9778 2.00013 20.4361 1.99991 19.8719V11.9139C1.99863 11.6203 2.05822 11.3289 2.17471 11.0594C2.29196 10.7884 2.46506 10.5444 2.68155 10.3436L2.68253 10.3416L11.5263 2.1844L11.6327 2.10335ZM3.62881 11.368C3.55487 11.4369 3.49515 11.5203 3.45499 11.6131C3.4147 11.7064 3.39477 11.8074 3.39542 11.909V19.8719C3.39564 20.0659 3.47233 20.2523 3.60928 20.3895C3.74681 20.527 3.93451 20.6042 4.12881 20.6043H11.3026V15.577C11.303 15.192 11.6149 14.8798 11.9999 14.8797C12.385 14.8797 12.6978 15.192 12.6982 15.577V20.6043H19.872C20.0661 20.6041 20.2522 20.5268 20.3896 20.3895H20.3905C20.5275 20.2524 20.6042 20.0661 20.6044 19.8719V11.909C20.6051 11.8076 20.5852 11.7066 20.5448 11.6131C20.5046 11.5202 20.445 11.4369 20.371 11.368L11.9999 3.64729L3.62881 11.368Z" fill="currentColor"/></svg>
