<svg viewBox="0 0 24 24" xmlns="http://www.w3.org/2000/svg"><path d="M13.8261 18.44C13.8261 19.2203 13.1939 19.8533 12.4135 19.8535C11.633 19.8535 11 19.2204 11 18.44C11.0001 17.6596 11.633 17.0265 12.4135 17.0265C13.1939 17.0266 13.826 17.6597 13.8261 18.44ZM13.8261 12.0001C13.8261 12.7805 13.1939 13.4135 12.4135 13.4136C11.633 13.4136 11.0001 12.7806 11 12.0001C11 11.2196 11.633 10.5866 12.4135 10.5866C13.1939 10.5867 13.8261 11.2197 13.8261 12.0001ZM13.8261 5.56025C13.826 6.34053 13.1938 6.9727 12.4135 6.97285C11.6331 6.97285 11.0002 6.34062 11 5.56025C11 4.77974 11.633 4.14673 12.4135 4.14673C13.1939 4.14688 13.8261 4.77983 13.8261 5.56025Z" fill="currentColor"/></svg>
