<svg viewBox="0 0 24 24" xmlns="http://www.w3.org/2000/svg"><path d="M21.3023 17.7423C21.6876 17.7423 21.9999 18.0547 22 18.44C22 18.8253 21.6876 19.1376 21.3023 19.1376H8.4226C8.03729 19.1376 7.72493 18.8253 7.72493 18.44C7.72502 18.0547 8.03734 17.7423 8.4226 17.7423H21.3023ZM21.3023 11.3024C21.6876 11.3024 22 11.6148 22 12.0001C22 12.3854 21.6876 12.6978 21.3023 12.6978H8.4226C8.03731 12.6978 7.72497 12.3854 7.72493 12.0001C7.72493 11.6148 8.03729 11.3024 8.4226 11.3024H21.3023ZM21.3023 4.86257C21.6876 4.86258 22 5.17494 22 5.56025C21.9998 5.94542 21.6875 6.25791 21.3023 6.25792H8.4226C8.03738 6.25792 7.72508 5.94543 7.72493 5.56025C7.72493 5.17493 8.03729 4.86257 8.4226 4.86257H21.3023ZM4.82613 18.44C4.82613 19.2203 4.19393 19.8533 3.41352 19.8535C2.63297 19.8535 2 19.2204 2 18.44C2.00008 17.6596 2.63302 17.0265 3.41352 17.0265C4.19388 17.0266 4.82605 17.6597 4.82613 18.44ZM4.82613 12.0001C4.82608 12.7805 4.19387 13.4135 3.41352 13.4136C2.63304 13.4136 2.00005 12.7806 2 12.0001C2 11.2196 2.63301 10.5866 3.41352 10.5866C4.1939 10.5867 4.82613 11.2197 4.82613 12.0001ZM4.82613 5.56025C4.82598 6.34053 4.1938 6.9727 3.41352 6.97285C2.6331 6.97285 2.00015 6.34062 2 5.56025C2 4.77974 2.63301 4.14673 3.41352 4.14673C4.1939 4.14688 4.82613 4.77983 4.82613 5.56025Z" fill="currentColor"/></svg>
