<svg viewBox="0 0 24 24" xmlns="http://www.w3.org/2000/svg"><path d="M17.0267 4.12866C17.0266 3.93434 16.9498 3.74749 16.8123 3.60996C16.6749 3.47255 16.488 3.39565 16.2936 3.39557H7.7063C7.51191 3.39566 7.32507 3.47249 7.1876 3.60996C7.05013 3.74743 6.9733 3.93427 6.97321 4.12866V19.6172L11.5062 15.0842C11.7787 14.8117 12.2212 14.8117 12.4937 15.0842L17.0267 19.6172V4.12866ZM18.422 21.3023C18.422 21.5845 18.2521 21.8393 17.9914 21.9473C17.7307 22.0552 17.4305 21.9951 17.2311 21.7956L11.9995 16.5649L6.76882 21.7956C6.5693 21.9951 6.26915 22.0552 6.00847 21.9473C5.74777 21.8393 5.57788 21.5845 5.57788 21.3023V4.12866C5.57797 3.56419 5.80194 3.02255 6.20105 2.62342C6.60019 2.22429 7.14183 2.00034 7.7063 2.00024H16.2936C16.8579 2.00032 17.3997 2.22424 17.7988 2.62342C18.1978 3.02249 18.4219 3.56413 18.422 4.12866V21.3023Z" fill="currentColor"/></svg>
