<svg viewBox="0 0 24 24" xmlns="http://www.w3.org/2000/svg"><path d="M21.3027 2C21.6877 2.00022 21.9998 2.31227 22 2.69727V21.3027C21.9998 21.6877 21.6877 21.9998 21.3027 22C20.9176 22 20.6047 21.6879 20.6045 21.3027V2.69727C20.6047 2.31214 20.9176 2 21.3027 2ZM4.15723 3.23926C4.48425 3.23927 4.80641 3.31492 5.09863 3.45898L5.22266 3.52441L5.25098 3.54297L15.5693 10.2109C15.8679 10.4038 16.1141 10.6692 16.2842 10.9814C16.4543 11.2938 16.5439 11.6443 16.5439 12C16.5439 12.3557 16.4543 12.7062 16.2842 13.0186C16.1147 13.3296 15.8695 13.5925 15.5723 13.7852L15.5732 13.7861L5.2832 20.5117C5.27248 20.5187 5.26109 20.5268 5.25 20.5332C4.9265 20.7199 4.55894 20.8184 4.18555 20.8184C3.81234 20.8183 3.44543 20.7198 3.12207 20.5332V20.5322C2.79236 20.3487 2.51631 20.0809 2.32422 19.7559C2.1302 19.4273 2.02896 19.0524 2.0293 18.6709L2 5.38965C1.99907 5.00692 2.1012 4.63029 2.2959 4.30078C2.48789 3.97598 2.76339 3.70899 3.09277 3.52539V3.52441C3.41632 3.33761 3.78368 3.23931 4.15723 3.23926ZM4.15723 4.63477C4.02874 4.63482 3.9023 4.66827 3.79102 4.73242C3.78648 4.73504 3.78194 4.73869 3.77734 4.74121C3.66159 4.80455 3.5642 4.89813 3.49707 5.01172C3.44698 5.09668 3.41426 5.19099 3.40137 5.28809L3.39551 5.38672L3.4248 18.667V18.6709C3.4245 18.8027 3.45931 18.9324 3.52637 19.0459C3.57667 19.131 3.64367 19.2045 3.72266 19.2627L3.80469 19.3164L3.81934 19.3242C3.93062 19.3885 4.05698 19.4228 4.18555 19.4229C4.31317 19.4229 4.43811 19.3875 4.54883 19.3242L14.8096 12.6182L14.8125 12.6162C14.9154 12.5498 15 12.4581 15.0586 12.3506C15.1172 12.243 15.1484 12.1225 15.1484 12C15.1484 11.8775 15.1172 11.757 15.0586 11.6494C15 11.5418 14.9155 11.4503 14.8125 11.3838L4.5166 4.72852C4.40701 4.66697 4.28304 4.63478 4.15723 4.63477Z" fill="currentColor"/></svg>
