<svg viewBox="0 0 24 24" xmlns="http://www.w3.org/2000/svg"><path d="M13.0478 5.57617C13.3191 5.57626 13.5864 5.64076 13.8271 5.76367L13.9287 5.82031L13.9511 5.83398L21.2216 10.5859H21.2207C21.4586 10.7392 21.6549 10.9499 21.791 11.1982C21.928 11.4485 22 11.7294 22 12.0146C21.9999 12.2999 21.9281 12.5808 21.791 12.8311C21.6538 13.0815 21.4553 13.2937 21.2148 13.4473L21.2138 13.4463L13.9492 18.166C13.9423 18.1705 13.9357 18.1755 13.9287 18.1797C13.6626 18.3392 13.3579 18.4237 13.0478 18.4238C12.7376 18.4238 12.4322 18.3392 12.166 18.1797V18.1787C11.9408 18.0524 11.7472 17.8776 11.6006 17.666L11.5381 17.5684C11.3799 17.3033 11.2967 16.9999 11.2978 16.6914V13.8486L4.65134 18.166C4.64445 18.1705 4.63787 18.1755 4.63083 18.1797C4.36472 18.3392 4.06011 18.4238 3.74997 18.4238C3.43971 18.4238 3.13435 18.3392 2.86813 18.1797V18.1787C2.64298 18.0524 2.44934 17.8776 2.3027 17.666L2.2402 17.5684C2.08203 17.3033 1.99886 16.9999 1.99997 16.6914V7.30566C1.99933 6.99794 2.08254 6.69595 2.2402 6.43164C2.39255 6.17637 2.6092 5.96558 2.86813 5.82031C3.13433 5.66075 3.43964 5.57617 3.74997 5.57617C4.02131 5.57624 4.28856 5.64076 4.52927 5.76367L4.63083 5.82031L4.65329 5.83398L11.2978 10.1758V7.25977C11.3053 6.95933 11.393 6.66602 11.5508 6.41016C11.7025 6.16429 11.9143 5.96143 12.166 5.82031L12.2675 5.76367C12.5085 5.64069 12.7763 5.57617 13.0478 5.57617ZM3.74997 6.97168C3.69235 6.97168 3.63532 6.98799 3.58591 7.01758C3.57644 7.02323 3.56633 7.02801 3.55661 7.0332C3.50787 7.05926 3.46677 7.09902 3.43845 7.14648C3.41016 7.19392 3.39527 7.24848 3.39548 7.30371V16.6963C3.39527 16.7516 3.41024 16.8062 3.43845 16.8535L3.4902 16.918L3.55661 16.9658L3.58591 16.9824C3.6353 17.012 3.6923 17.0283 3.74997 17.0283C3.80752 17.0282 3.86375 17.012 3.91306 16.9824L11.1611 12.2734L11.166 12.2705L11.2256 12.2217C11.2425 12.2034 11.2574 12.1831 11.2695 12.1611C11.2818 12.1387 11.2915 12.1144 11.2978 12.0898V11.9395C11.2915 11.9148 11.2818 11.8906 11.2695 11.8682C11.245 11.8235 11.2098 11.7852 11.167 11.7578L11.1601 11.7539L3.9111 7.0166C3.86219 6.98772 3.80679 6.97175 3.74997 6.97168ZM13.0478 6.97168C12.9902 6.97168 12.9332 6.98801 12.8838 7.01758C12.874 7.02341 12.8635 7.02883 12.8535 7.03418C12.8062 7.05951 12.7655 7.09682 12.7373 7.14258C12.7092 7.1882 12.6947 7.24128 12.6933 7.29492V11.8682C12.6975 11.9167 12.7021 11.9657 12.7021 12.0146C12.7021 12.0621 12.6973 12.1092 12.6933 12.1562V16.6963C12.6931 16.7516 12.7081 16.8062 12.7363 16.8535L12.7881 16.918L12.8535 16.9658L12.8838 16.9824C12.9331 17.012 12.9902 17.0283 13.0478 17.0283C13.1044 17.0282 13.1593 17.012 13.208 16.9834L20.459 12.2734L20.4638 12.2705L20.5224 12.2217C20.5395 12.2034 20.5552 12.1832 20.5674 12.1611C20.5918 12.1165 20.6044 12.0657 20.6045 12.0146C20.6045 11.9635 20.5918 11.9129 20.5674 11.8682C20.5428 11.8235 20.5069 11.7853 20.4638 11.7578L20.457 11.7539V11.7529L13.209 7.0166C13.1601 6.9877 13.1046 6.97178 13.0478 6.97168Z" fill="currentColor"/></svg>
