<svg viewBox="0 0 24 24" xmlns="http://www.w3.org/2000/svg"><path d="M20.1797 3.3719C20.471 3.41403 20.75 3.51592 20.999 3.67073L21.1045 3.74104L21.1064 3.74202C21.3469 3.91336 21.5484 4.13285 21.6992 4.38557L21.7607 4.49593L21.8633 4.72737C21.9519 4.96311 21.9989 5.21332 22 5.46663V17.2508C21.9987 17.5466 21.9353 17.8381 21.8154 18.1073L21.7607 18.2205C21.6052 18.5203 21.3813 18.7796 21.1064 18.9754L21.1055 18.9744C20.8337 19.1702 20.5198 19.3009 20.1885 19.3524V19.3514C19.8552 19.4033 19.5143 19.3749 19.1943 19.2694H19.1934L8.30859 15.6414H6.97266V16.3748C6.97269 16.753 7.04769 17.1281 7.19238 17.4774C7.33709 17.8265 7.54922 18.1438 7.81641 18.411C8.0837 18.6783 8.40155 18.8911 8.75098 19.036C9.10039 19.1806 9.4755 19.2547 9.85352 19.2547C10.2385 19.2548 10.5505 19.567 10.5508 19.952C10.5508 20.3372 10.2387 20.6501 9.85352 20.6502C9.29221 20.6502 8.73626 20.5396 8.21777 20.325C7.69919 20.1101 7.22717 19.7945 6.83008 19.3973V19.3983C6.43319 19.0014 6.11817 18.53 5.90332 18.0116C5.68848 17.4929 5.57719 16.9362 5.57715 16.3748V15.5828C4.70234 15.438 3.88717 15.0246 3.25195 14.3895C2.85501 13.9925 2.54004 13.5205 2.3252 13.0018C2.11043 12.4832 2.00004 11.9273 2 11.366C2 10.2323 2.45034 9.14439 3.25195 8.34261C3.64879 7.94581 4.12024 7.63069 4.63867 7.41585C5.15728 7.20103 5.71408 7.08973 6.27539 7.08968H8.31055L19.1885 3.46468V3.4637C19.5068 3.35523 19.8468 3.32383 20.1797 3.3719ZM19.9795 4.75276C19.8649 4.73627 19.7473 4.74665 19.6377 4.78401L19.6338 4.78596L9.12012 8.28987V14.4412L19.6309 17.9451H19.6318C19.7422 17.9815 19.8601 17.9903 19.9746 17.9725L20.0586 17.9549C20.142 17.9316 20.2214 17.8937 20.292 17.8426L20.2969 17.8387C20.3915 17.7713 20.4688 17.6822 20.5225 17.5789L20.5576 17.4989C20.5877 17.4188 20.6037 17.3338 20.6045 17.2479V5.47249L20.5996 5.38557C20.5889 5.29962 20.5626 5.21597 20.5225 5.1385V5.13753C20.4688 5.03457 20.3912 4.94602 20.2969 4.87874V4.87776C20.2026 4.81161 20.0934 4.76921 19.9795 4.75276ZM6.27539 8.48518C5.89731 8.48524 5.52216 8.56022 5.17285 8.70491C4.82371 8.8496 4.50654 9.06173 4.23926 9.32893C3.69913 9.86906 3.39551 10.6022 3.39551 11.366C3.39555 11.744 3.46966 12.1184 3.61426 12.4676C3.75896 12.8169 3.97192 13.1348 4.23926 13.4022C4.77925 13.942 5.51184 14.2458 6.27539 14.2459H7.72461V8.48518H6.27539Z" fill="currentColor"/></svg>
