<svg viewBox="0 0 24 24" xmlns="http://www.w3.org/2000/svg"><path d="M20.6047 12C20.6047 7.24778 16.7523 3.39535 12 3.39535C7.24778 3.39535 3.39535 7.24778 3.39535 12C3.39535 16.7523 7.24778 20.6047 12 20.6047C16.7523 20.6047 20.6047 16.7523 20.6047 12ZM8.76235 12C8.76235 12.5829 8.28959 13.0555 7.70676 13.0556C7.16034 13.0556 6.71075 12.6402 6.65661 12.1081L6.65116 12L6.65661 11.8919C6.71075 11.3598 7.16034 10.9444 7.70676 10.9444L7.81486 10.9499C8.34693 11.0041 8.76235 11.4536 8.76235 12ZM13.0556 12C13.0556 12.5829 12.5829 13.0556 12 13.0556C11.4171 13.0556 10.9444 12.5829 10.9444 12C10.9444 11.4171 11.4171 10.9444 12 10.9444L12.1081 10.9499C12.6402 11.004 13.0556 11.4536 13.0556 12ZM17.3488 12C17.3488 12.5829 16.8762 13.0556 16.2932 13.0556C15.7104 13.0555 15.2376 12.5829 15.2376 12C15.2376 11.4171 15.7104 10.9445 16.2932 10.9444C16.8762 10.9444 17.3488 11.4171 17.3488 12ZM22 12C22 17.5229 17.5229 22 12 22C6.47716 22 2 17.5229 2 12C2 6.47715 6.47715 2 12 2C17.5229 2 22 6.47716 22 12Z" fill="currentColor"/></svg>
