<svg viewBox="0 0 24 24" xmlns="http://www.w3.org/2000/svg"><path d="M10.2412 2.46973C10.5341 2.17683 11.0098 2.17683 11.3027 2.46973C11.5953 2.76255 11.5953 3.23745 11.3027 3.53027L3.81152 11.0215H22C22.4141 11.0215 22.7498 11.3575 22.75 11.7715C22.75 12.1857 22.4142 12.5215 22 12.5215H3.81055L11.3027 20.0137C11.5952 20.3065 11.5953 20.7814 11.3027 21.0742C11.0098 21.3671 10.5341 21.3671 10.2412 21.0742L1.46973 12.3027C1.32907 12.1621 1.25 11.9704 1.25 11.7715C1.25012 11.5727 1.32918 11.3818 1.46973 11.2412L10.2412 2.46973Z" fill="currentColor"/></svg>
