<svg viewBox="0 0 24 24" xmlns="http://www.w3.org/2000/svg"><path d="M13.7588 2.46973C13.4659 2.17683 12.9902 2.17683 12.6973 2.46973C12.4047 2.76255 12.4047 3.23745 12.6973 3.53027L20.1885 11.0215H2C1.58593 11.0215 1.25024 11.3575 1.25 11.7715C1.25 12.1857 1.58578 12.5215 2 12.5215H20.1895L12.6973 20.0137C12.4048 20.3065 12.4047 20.7814 12.6973 21.0742C12.9902 21.3671 13.4659 21.3671 13.7588 21.0742L22.5303 12.3027C22.6709 12.1621 22.75 11.9704 22.75 11.7715C22.7499 11.5727 22.6708 11.3818 22.5303 11.2412L13.7588 2.46973Z" fill="currentColor"/></svg>
