<svg viewBox="0 0 24 24" xmlns="http://www.w3.org/2000/svg"><path d="M2.20441 2.20441C2.47685 1.93197 2.91827 1.932 3.19073 2.20441L8.67804 7.69172L18.6927 3.45539C19.8617 2.96134 21.0399 4.13979 20.5452 5.30891L16.3079 15.3216L21.7952 20.8089C22.0677 21.0814 22.0677 21.5228 21.7952 21.7952C21.5228 22.0677 21.0814 22.0677 20.8089 21.7952L14.9866 15.9739C14.9836 15.9709 14.9808 15.9673 14.9778 15.9642L2.20441 3.19074C1.93199 2.91828 1.93196 2.47686 2.20441 2.20441ZM5.09015 9.21027C5.44486 9.06024 5.85394 9.22583 6.00421 9.58039C6.15427 9.9351 5.98865 10.3442 5.63409 10.4945L3.68097 11.3216L3.6712 11.3265V11.3255C3.67072 11.3265 3.6685 11.3313 3.66827 11.3382L3.67023 11.3499L3.67218 11.3509C3.67338 11.3518 3.67572 11.3531 3.67902 11.3548L9.23566 14.1331C9.50861 14.2698 9.72979 14.4911 9.86652 14.764L12.6448 20.3216C12.6465 20.3248 12.6489 20.3263 12.6497 20.3275L12.6507 20.3294C12.6523 20.33 12.6564 20.3316 12.6624 20.3314L12.6741 20.3284L12.6751 20.3265C12.6759 20.3251 12.6777 20.3228 12.679 20.3196L13.5052 18.3665C13.6553 18.0117 14.0644 17.8453 14.4193 17.9954C14.7741 18.1456 14.9394 18.5547 14.7894 18.9095L13.9632 20.8636C13.4932 21.9742 11.9377 22.024 11.3978 20.9456L8.61847 15.388L8.61066 15.3802V15.3792L3.05499 12.6019C1.97651 12.0621 2.02534 10.5066 3.13605 10.0364L5.09015 9.21027ZM19.2357 4.74055L9.74249 8.75617L15.2435 14.2562L19.2591 4.76398L19.263 4.7552C19.2626 4.75412 19.2605 4.74979 19.2552 4.74445L19.2444 4.73664C19.2428 4.73709 19.2398 4.73878 19.2357 4.74055Z" fill="currentColor"/></svg>
