<svg viewBox="0 0 24 24" xmlns="http://www.w3.org/2000/svg"><path d="M19.898 2.1229C21.147 1.59454 22.4054 2.85229 21.8775 4.10142L14.6958 21.077C14.1936 22.2639 12.5302 22.3168 11.9536 21.1639L8.92239 15.1004C8.91733 15.0906 8.90883 15.083 8.89896 15.078L2.83548 12.0458C1.68318 11.469 1.73638 9.80671 2.92337 9.30454L19.898 2.1229ZM20.4654 3.46568L3.49075 10.6473C3.4808 10.6516 3.47552 10.6561 3.47318 10.6581C3.47111 10.6598 3.46964 10.6619 3.46829 10.6639C3.46497 10.669 3.45996 10.6797 3.4595 10.6942C3.45915 10.7083 3.4634 10.7182 3.46634 10.7235C3.46762 10.7257 3.4691 10.7283 3.47122 10.7303C3.47346 10.7324 3.47843 10.7363 3.48782 10.7411L9.5513 13.7733L9.65872 13.8329C9.90151 13.9801 10.0983 14.1937 10.2261 14.4491L13.2583 20.5116C13.2634 20.5217 13.268 20.527 13.2701 20.5292C13.2721 20.5313 13.2746 20.5337 13.2769 20.535C13.2824 20.5379 13.2933 20.5413 13.3072 20.5409C13.3211 20.5403 13.3314 20.5363 13.3365 20.5331C13.3387 20.5316 13.3413 20.5296 13.3433 20.5272C13.3452 20.5249 13.348 20.5192 13.3521 20.5096L20.5337 3.53403C20.5385 3.52269 20.5402 3.51558 20.5406 3.51255C20.5408 3.50979 20.541 3.50699 20.5406 3.50474C20.5393 3.49923 20.5351 3.48763 20.524 3.47642C20.5126 3.46513 20.5002 3.46104 20.4947 3.45982C20.4926 3.45936 20.4903 3.45868 20.4878 3.45884C20.4849 3.45914 20.4769 3.46081 20.4654 3.46568Z" fill="currentColor"/></svg>
