<svg viewBox="0 0 24 24" xmlns="http://www.w3.org/2000/svg"><path d="M7.7453 4.99918C9.12973 4.72387 10.5652 4.86528 11.8693 5.40543C13.1735 5.94564 14.2882 6.86064 15.0724 8.03433C15.6468 8.89399 16.0234 9.86478 16.1848 10.8771C16.6727 10.6887 17.1941 10.5878 17.7238 10.5871H17.7248C18.8585 10.5872 19.9465 11.0373 20.7482 11.839L20.8947 11.9923C21.6047 12.7766 22.0002 13.7995 22.0002 14.8625C22.0001 15.9252 21.6045 16.9474 20.8947 17.7316L20.7482 17.8859C19.9465 18.6874 18.8585 19.1377 17.7248 19.1378H9.13788C7.72626 19.1378 6.34581 18.7191 5.17206 17.9347C3.99837 17.1504 3.08338 16.0358 2.54315 14.7316C2.003 13.4275 1.8616 11.992 2.1369 10.6076C2.41236 9.2231 3.09189 7.95045 4.09003 6.9523C5.08818 5.95415 6.36084 5.27462 7.7453 4.99918ZM11.3351 6.69449C10.286 6.26001 9.13145 6.14589 8.01776 6.36734C6.90384 6.58891 5.88042 7.13652 5.07733 7.93961C4.27425 8.7427 3.72664 9.76612 3.50507 10.88C3.28361 11.9937 3.39773 13.1483 3.83221 14.1974C4.2668 15.2466 5.00323 16.1435 5.94745 16.7746C6.89165 17.4054 8.0023 17.7423 9.13788 17.7423H17.7248C18.4883 17.7422 19.2208 17.4384 19.7609 16.8986L19.8596 16.7951C20.3378 16.2667 20.6046 15.5784 20.6047 14.8625C20.6047 14.0986 20.301 13.3655 19.7609 12.8253C19.2208 12.2855 18.4883 11.9827 17.7248 11.9826C17.1014 11.9835 16.4945 12.1854 15.9953 12.5587C15.784 12.7167 15.5018 12.7421 15.2658 12.6242C15.0298 12.506 14.8802 12.2641 14.8801 12.0002C14.88 10.8646 14.5431 9.75395 13.9123 8.80972C13.2813 7.86554 12.3843 7.12909 11.3351 6.69449Z" fill="currentColor"/></svg>
