<svg viewBox="0 0 24 24" xmlns="http://www.w3.org/2000/svg"><path d="M11.9996 10.5534C14.6024 10.5534 16.7123 12.6635 16.7125 15.2663C16.7125 16.5386 16.2077 17.6927 15.3883 18.5407C15.3716 18.5617 15.354 18.5828 15.3345 18.6022C15.3153 18.6214 15.2948 18.6385 15.274 18.6549C14.426 19.4745 13.272 19.9791 11.9996 19.9792C9.39673 19.9789 7.2867 17.8692 7.2867 15.2663C7.28681 13.9937 7.79214 12.8398 8.61189 11.9919C8.62833 11.9712 8.64648 11.9504 8.6656 11.9313C8.68463 11.9123 8.70462 11.8949 8.72517 11.8786C9.57309 11.0589 10.7272 10.5535 11.9996 10.5534ZM9.21248 13.4665C8.87697 13.9849 8.68228 14.6028 8.68221 15.2663C8.68221 17.0985 10.1674 18.5834 11.9996 18.5836C12.6631 18.5836 13.2809 18.3889 13.7994 18.0534L9.21248 13.4665ZM9.20076 4.97037C10.4116 4.21294 11.8464 3.89424 13.2642 4.06607C14.6821 4.23798 15.9989 4.8909 16.9937 5.91568C17.9277 6.87792 18.5248 8.11357 18.7017 9.43814C19.6933 9.73305 20.5602 10.3528 21.1588 11.2028C21.8085 12.1258 22.098 13.2561 21.9713 14.3776V14.3786C21.8441 15.4998 21.3095 16.5354 20.4703 17.2897V17.2907C19.8403 17.8567 19.0702 18.2339 18.2486 18.3903C17.8703 18.462 17.5052 18.2139 17.4332 17.8356C17.3613 17.4573 17.6097 17.0924 17.9879 17.0202C18.5609 16.9111 19.0974 16.6471 19.5367 16.2526C20.1221 15.7264 20.4958 15.0035 20.5845 14.2213C20.673 13.4391 20.4711 12.6512 20.0181 12.0075C19.5649 11.3636 18.8911 10.9078 18.1246 10.7272C18.1113 10.7241 18.0977 10.7204 18.0845 10.7165C17.9407 10.6735 17.8089 10.6 17.6969 10.5026L17.5904 10.3961C17.4603 10.2452 17.3751 10.0596 17.3463 9.86099C17.3445 9.84894 17.3425 9.83601 17.3414 9.82388C17.2406 8.71963 16.765 7.68304 15.9928 6.88736C15.2202 6.09156 14.1973 5.58431 13.0963 5.45084C11.9955 5.31745 10.8821 5.56514 9.94197 6.15298C9.00163 6.74118 8.29104 7.63477 7.92928 8.68326C7.91995 8.71026 7.90863 8.7367 7.89607 8.76236C7.83164 8.89396 7.73964 9.00975 7.62752 9.1022L7.50838 9.18619C7.3592 9.2769 7.18926 9.32503 7.01521 9.3317L7.01619 9.33463C6.5079 9.36877 6.01084 9.50314 5.55428 9.72916C5.09771 9.95526 4.69037 10.2694 4.35506 10.653C3.67775 11.4278 3.33595 12.4397 3.40486 13.4665C3.4739 14.4929 3.94683 15.4504 4.72127 16.1276C5.15243 16.5045 5.65796 16.778 6.19783 16.9342C6.56778 17.0414 6.78048 17.4285 6.67342 17.7985C6.56612 18.1682 6.18003 18.381 5.81013 18.2741C5.07631 18.0618 4.38955 17.6908 3.8033 17.1784C2.74993 16.2575 2.10602 14.9553 2.01228 13.5592C1.91867 12.1634 2.38265 10.7874 3.3033 9.73404C3.75926 9.21243 4.31428 8.7856 4.93513 8.47818C5.49168 8.20266 6.09226 8.02728 6.70857 7.9606C7.19855 6.72623 8.07069 5.67733 9.20076 4.97037ZM11.9996 11.9489C11.3362 11.949 10.7182 12.1437 10.1998 12.4792L14.7847 17.0661C15.1205 16.5475 15.3179 15.9301 15.3179 15.2663C15.3177 13.4341 13.8318 11.9489 11.9996 11.9489Z" fill="currentColor"/></svg>
