<svg viewBox="0 0 24 24" xmlns="http://www.w3.org/2000/svg"><path d="M10.0347 11.5875C10.2403 11.4059 10.5336 11.3615 10.7837 11.4742C11.0336 11.587 11.1938 11.8358 11.1939 12.11V19.5914C11.1939 19.9767 10.8819 20.2886 10.4966 20.2887C10.1115 20.2885 9.79839 19.9766 9.79839 19.5914V13.6578L8.13628 15.1266C7.84764 15.3815 7.40705 15.3544 7.1519 15.066C6.89678 14.7773 6.9237 14.3358 7.21245 14.0807L10.0347 11.5875ZM13.5035 11.4117C13.8885 11.4119 14.2006 11.7249 14.2007 12.11V18.0436L15.8638 16.5748C16.1524 16.3199 16.5931 16.347 16.8482 16.6354C17.1032 16.924 17.076 17.3646 16.7876 17.6198L13.9654 20.1149C13.7598 20.2964 13.4664 20.3399 13.2164 20.2272C12.9664 20.1144 12.8062 19.8657 12.8062 19.5914V12.11C12.8063 11.7248 13.1182 11.4117 13.5035 11.4117ZM9.20073 4.66077C10.4116 3.90337 11.8464 3.58372 13.2642 3.75549C14.682 3.9274 15.9989 4.58038 16.9937 5.6051C17.9278 6.56738 18.5248 7.80383 18.7017 9.12854C19.6933 9.42347 20.5602 10.0431 21.1587 10.8932C21.8084 11.8161 22.0979 12.9456 21.9712 14.067V14.068C21.852 15.1195 21.3744 16.096 20.6236 16.8356L20.4703 16.9811C20.1168 17.2985 19.7191 17.5563 19.2935 17.7496C18.9427 17.9089 18.5291 17.7537 18.3697 17.403C18.2105 17.0522 18.3658 16.6385 18.7164 16.4791C19.0134 16.3442 19.2911 16.1634 19.5376 15.942C20.123 15.4157 20.4959 14.6929 20.5845 13.9108C20.6729 13.1285 20.4712 12.3406 20.0181 11.6969C19.5649 11.0531 18.891 10.5982 18.1246 10.4176C18.1114 10.4145 18.0984 10.4107 18.0855 10.4069C17.9414 10.3639 17.8089 10.2904 17.6968 10.193L17.5904 10.0865C17.4601 9.93549 17.375 9.74928 17.3462 9.55042C17.3445 9.53845 17.3425 9.52632 17.3414 9.51428C17.2406 8.41001 16.765 7.37348 15.9927 6.57776C15.2202 5.78196 14.1973 5.27471 13.0962 5.14124C11.9954 5.00785 10.8821 5.2555 9.94194 5.84338C9.0016 6.43157 8.29101 7.32518 7.92924 8.37366C7.91993 8.4006 7.90857 8.42716 7.89604 8.45276C7.81009 8.62824 7.67511 8.77505 7.50835 8.87659C7.35907 8.96738 7.18911 9.01543 7.01518 9.02209L7.01616 9.02502C6.50797 9.05918 6.01071 9.19265 5.55424 9.41858C5.09783 9.64462 4.69027 9.95902 4.35503 10.3424C3.67779 11.1172 3.33601 12.1292 3.40483 13.1559C3.47376 14.1826 3.94664 15.1406 4.72124 15.818C5.49605 16.4952 6.50889 16.837 7.53569 16.7682C7.9201 16.7424 8.25303 17.0332 8.27885 17.4176C8.30461 17.802 8.01379 18.1349 7.62944 18.1608C6.23338 18.2544 4.85672 17.7895 3.80327 16.8688C2.74987 15.9478 2.10599 14.6457 2.01225 13.2496C1.91858 11.8538 2.38266 10.4778 3.30327 9.42444C3.75926 8.90281 4.3142 8.47504 4.9351 8.1676C5.49163 7.89211 6.09229 7.71768 6.70854 7.651C7.19848 6.41659 8.07066 5.36777 9.20073 4.66077Z" fill="currentColor"/></svg>
