<svg viewBox="0 0 24 24" xmlns="http://www.w3.org/2000/svg"><path d="M11.9996 12.0602C13.4103 12.0602 14.6608 12.7417 15.441 13.7936L15.6471 13.234C15.7798 12.8724 16.1809 12.6864 16.5426 12.819C16.904 12.9517 17.0899 13.3529 16.9576 13.7145L16.1676 15.8649C16.0516 16.1811 15.727 16.3701 15.3951 16.3131L13.315 15.9537C12.9356 15.8881 12.6813 15.5276 12.7467 15.1481C12.8123 14.7686 13.1728 14.5134 13.5523 14.5787L14.3873 14.7223C13.8677 13.9582 12.9928 13.4547 11.9996 13.4547C10.4052 13.4549 9.11199 14.7479 9.11191 16.3424C9.11208 17.9368 10.4052 19.2299 11.9996 19.2301C12.7125 19.2301 13.364 18.9724 13.8678 18.5445C14.1613 18.2952 14.6016 18.3304 14.8512 18.6236C15.1005 18.9173 15.0647 19.3586 14.7711 19.608C14.0245 20.2421 13.0556 20.6256 11.9996 20.6256C9.63461 20.6254 7.71658 18.7074 7.7164 16.3424C7.71648 13.9773 9.63455 12.0604 11.9996 12.0602ZM9.20078 4.32579C10.4116 3.56839 11.8464 3.24872 13.2643 3.42052C14.6821 3.59244 15.9989 4.24534 16.9937 5.27013C17.9277 6.2323 18.5248 7.46805 18.7018 8.79259C19.6935 9.08751 20.5602 9.70807 21.1588 10.5582C21.8084 11.4811 22.098 12.6106 21.9713 13.732V13.733C21.8442 14.8544 21.3094 15.8898 20.4703 16.6441V16.6451C20.1713 16.9138 19.8402 17.1406 19.4879 17.3209C19.1449 17.4962 18.7239 17.3601 18.5484 17.0172C18.3732 16.6743 18.5093 16.2542 18.8521 16.0787C19.098 15.9529 19.3281 15.7944 19.5367 15.607L19.7467 15.401C20.2114 14.8994 20.507 14.2603 20.5846 13.5758C20.673 12.7935 20.4713 12.0057 20.0182 11.3619C19.5649 10.718 18.8911 10.2622 18.1246 10.0816C18.1115 10.0786 18.0985 10.0748 18.0855 10.0709C17.9416 10.0279 17.809 9.95536 17.6969 9.85802L17.5904 9.75157C17.4601 9.6005 17.375 9.41433 17.3463 9.21544C17.3445 9.20344 17.3425 9.19138 17.3414 9.17931C17.2406 8.07485 16.7652 7.03758 15.9928 6.24181C15.2202 5.44605 14.1973 4.93975 13.0963 4.80626C11.9953 4.67284 10.8813 4.92036 9.94101 5.50841C9.00101 6.09652 8.29105 6.98955 7.92929 8.0377C7.92002 8.06458 7.90858 8.09126 7.89609 8.11681C7.83168 8.24836 7.73966 8.36418 7.62753 8.45665L7.50839 8.54161C7.35913 8.63237 7.18913 8.68046 7.01523 8.68712L7.0162 8.68907C6.5078 8.72323 6.00996 8.8575 5.55331 9.0836C5.097 9.30964 4.69025 9.62407 4.35507 10.0074C3.67779 10.7822 3.33599 11.7941 3.40488 12.8209C3.47381 13.8476 3.94658 14.8056 4.72128 15.483C5.04759 15.7682 5.41726 15.9932 5.81113 16.1539C6.16759 16.2996 6.3375 16.7075 6.19199 17.0641C6.04627 17.4206 5.63943 17.5924 5.28281 17.4469C4.7476 17.2285 4.24678 16.9214 3.80331 16.5338C2.74989 15.6129 2.10606 14.3107 2.0123 12.9147C1.91859 11.5188 2.38273 10.1429 3.30331 9.08946C3.75931 8.56782 4.31424 8.14005 4.93515 7.83263C5.49168 7.55713 6.09231 7.38271 6.70859 7.31602C7.19851 6.08156 8.07068 5.03283 9.20078 4.32579Z" fill="currentColor"/></svg>
