<svg viewBox="0 0 24 24" xmlns="http://www.w3.org/2000/svg"><path d="M12.1079 18.3391C12.6412 18.3932 13.0548 18.8434 13.0551 19.3889C13.0551 19.9708 12.5848 20.4452 12.0004 20.4455C11.4172 20.4455 10.9438 19.9722 10.9438 19.3889C10.9441 18.8057 11.4174 18.3332 12.0004 18.3332L12.1079 18.3391ZM9.2016 4.50507C10.4124 3.74775 11.8463 3.42804 13.2641 3.59979C14.682 3.77171 15.9988 4.42462 16.9936 5.4494C17.9276 6.41159 18.5246 7.64729 18.7016 8.97186C19.6934 9.26677 20.56 9.88731 21.1586 10.7375C21.8083 11.6604 22.0979 12.7898 21.9711 13.9113C21.844 15.0327 21.3094 16.069 20.4702 16.8234C19.6306 17.5777 18.5431 17.9992 17.4145 18.006H15.5844C15.1993 18.0058 14.8871 17.6929 14.8871 17.3078C14.8875 16.9229 15.1995 16.6108 15.5844 16.6105H17.4057C18.1929 16.6058 18.9518 16.3125 19.5375 15.7863C20.123 15.26 20.4958 14.5373 20.5844 13.7551C20.6729 12.9727 20.4711 12.185 20.018 11.5412C19.5648 10.8973 18.891 10.4415 18.1245 10.2609C18.1114 10.2578 18.0983 10.254 18.0854 10.2502C17.9415 10.2072 17.8088 10.1346 17.6967 10.0373L17.5903 9.93085C17.46 9.77979 17.3749 9.59359 17.3461 9.39471C17.3444 9.38273 17.3424 9.37064 17.3412 9.35858C17.2405 8.25413 16.7651 7.21686 15.9926 6.42108C15.2201 5.62535 14.1972 5.11902 13.0961 4.98553C11.9953 4.85216 10.882 5.09971 9.94184 5.68768C9.00159 6.27582 8.29094 7.16862 7.92914 8.21698C7.91985 8.2439 7.90845 8.2705 7.89594 8.29608C7.83152 8.42765 7.73953 8.54346 7.62738 8.63593L7.50824 8.72089C7.35902 8.81159 7.18892 8.85973 7.01508 8.86639L7.01605 8.86835C6.50782 8.90251 6.01066 9.03689 5.55414 9.26288C5.09764 9.48895 4.6902 9.8032 4.35492 10.1867C3.67762 10.9615 3.33582 11.9734 3.40473 13.0002C3.47367 14.027 3.94736 14.9849 4.72211 15.6623C5.47885 16.3236 6.38808 16.6105 7.58246 16.6105H8.41449C8.79958 16.6106 9.11144 16.9228 9.11176 17.3078C9.11176 17.6931 8.79977 18.006 8.41449 18.006H7.58246C6.13978 18.006 4.87454 17.6497 3.80316 16.7131C2.74975 15.7922 2.10593 14.49 2.01215 13.0939C1.91845 11.6982 2.38265 10.3221 3.30316 9.26874C3.75914 8.74711 4.31412 8.31932 4.935 8.0119C5.49155 7.73638 6.09213 7.56199 6.70844 7.4953C7.19841 6.26068 8.07131 5.21211 9.2016 4.50507ZM12.0004 10.3088C12.3854 10.3091 12.6976 10.621 12.6977 11.006V16.0256C12.6975 16.4106 12.3854 16.7226 12.0004 16.7228C11.6152 16.7228 11.3024 16.4107 11.3022 16.0256V11.006C11.3023 10.6208 11.6152 10.3088 12.0004 10.3088Z" fill="currentColor"/></svg>
