<svg viewBox="0 0 24 24" xmlns="http://www.w3.org/2000/svg"><path d="M12.0004 11.4591C12.3853 11.4594 12.6975 11.7715 12.6977 12.1564V14.8898H15.4301C15.8152 14.8899 16.1271 15.202 16.1274 15.5871C16.1272 15.9721 15.8152 16.2852 15.4301 16.2853H12.6977V19.0167C12.6977 19.4019 12.3855 19.7137 12.0004 19.714C11.6151 19.714 11.3022 19.4021 11.3022 19.0167V16.2853H8.56976C8.18458 16.2853 7.87271 15.9722 7.8725 15.5871C7.87275 15.202 8.1846 14.8898 8.56976 14.8898H11.3022V12.1564C11.3024 11.7713 11.6153 11.4591 12.0004 11.4591ZM9.2016 5.23549C10.4124 4.47817 11.8464 4.15845 13.2641 4.33022C14.682 4.50212 15.9988 5.15505 16.9936 6.17982C17.9276 7.142 18.5246 8.37773 18.7016 9.70229C19.6934 9.99719 20.56 10.6177 21.1586 11.4679C21.8083 12.3909 22.0979 13.5203 21.9711 14.6417V14.6427C21.844 15.7641 21.3094 16.7995 20.4702 17.5538V17.5548C19.6306 18.3091 18.5431 18.7296 17.4145 18.7365C17.0294 18.7386 16.7157 18.4283 16.7133 18.0431C16.711 17.658 17.0206 17.3435 17.4057 17.341C18.1929 17.3362 18.9518 17.043 19.5375 16.5167C20.1229 15.9905 20.4957 15.2677 20.5844 14.4855C20.6729 13.7031 20.4711 12.9154 20.018 12.2716C19.5648 11.6278 18.891 11.1719 18.1245 10.9913C18.1112 10.9882 18.0975 10.9845 18.0844 10.9806C17.9408 10.9376 17.8087 10.865 17.6967 10.7677L17.5903 10.6613C17.46 10.5102 17.3749 10.324 17.3461 10.1251C17.3444 10.1131 17.3424 10.1011 17.3412 10.089C17.2405 8.98455 16.7651 7.94728 15.9926 7.1515C15.2201 6.35578 14.1971 5.84943 13.0961 5.71596C11.9953 5.58257 10.882 5.83014 9.94183 6.41811C9.0016 7.00623 8.29094 7.89906 7.92914 8.9474C7.91986 8.97431 7.90844 9.00094 7.89594 9.0265C7.83151 9.1581 7.7395 9.27389 7.62738 9.36635L7.50824 9.45131C7.35914 9.54191 7.189 9.59015 7.01508 9.59682L7.01605 9.59877C6.50783 9.63292 6.01065 9.76732 5.55414 9.9933C5.09766 10.2194 4.69019 10.5336 4.35492 10.9171C3.67763 11.6919 3.33583 12.7038 3.40472 13.7306C3.47367 14.7574 3.94738 15.7154 4.72211 16.3927C5.49682 17.0698 6.50901 17.4117 7.53558 17.3429C7.92 17.3171 8.25294 17.6079 8.27875 17.9923C8.30443 18.3766 8.01364 18.7096 7.62933 18.7355C6.23331 18.8291 4.8566 18.3644 3.80316 17.4435C2.74973 16.5226 2.10591 15.2204 2.01215 13.8244C1.91844 12.4286 2.38263 11.0525 3.30316 9.99916C3.75914 9.47753 4.3141 9.04975 4.935 8.74232C5.49154 8.4668 6.09212 8.2924 6.70844 8.22572C7.19841 6.9911 8.07131 5.94253 9.2016 5.23549Z" fill="currentColor"/></svg>
