<svg viewBox="0 0 24 24" xmlns="http://www.w3.org/2000/svg"><path d="M2.20441 2.20441C2.47686 1.93196 2.91828 1.93199 3.19074 2.20441L7.27473 6.28741C8.65905 5.46772 10.2655 4.86261 12.0003 4.86261C14.2012 4.86271 16.1972 5.83566 17.8001 6.99249C19.2077 8.0084 20.3594 9.19936 21.1419 10.1068L21.4544 10.4778L21.4603 10.4847C21.8021 10.9109 21.9817 11.4518 21.9818 12.0003C21.9817 12.5487 21.802 13.0888 21.4603 13.515L21.4544 13.5237C20.7026 14.4339 19.4685 15.7791 17.9114 16.9241L21.7952 20.8089C22.0677 21.0814 22.0677 21.5228 21.7952 21.7952C21.5228 22.0677 21.0814 22.0677 20.8089 21.7952L2.20441 3.19073C1.932 2.91827 1.93197 2.47685 2.20441 2.20441ZM4.57355 8.32843C4.85678 8.06718 5.29863 8.08524 5.55988 8.36847C5.82071 8.65171 5.80292 9.0927 5.51984 9.35382C4.73199 10.0806 4.08582 10.8041 3.62434 11.3626C3.49387 11.5276 3.41244 11.7542 3.41242 12.0003C3.41249 12.2445 3.49262 12.4695 3.62141 12.6341C4.35278 13.5196 5.54067 14.8115 7.01594 15.8763C8.49699 16.9452 10.2085 17.7425 12.0003 17.7425C12.6612 17.7425 13.3115 17.6342 13.9446 17.4427C14.3133 17.3314 14.7032 17.5399 14.8148 17.9085C14.9262 18.2773 14.7167 18.6671 14.348 18.7786C13.6009 19.0045 12.8147 19.138 12.0003 19.138C9.79921 19.138 7.80258 18.1641 6.19953 17.0071C4.59126 15.8463 3.31746 14.4575 2.54621 13.5237L2.53938 13.515C2.19771 13.0888 2.01698 12.5486 2.01691 12.0003C2.01693 11.4518 2.19749 10.9109 2.53938 10.4847L2.54621 10.4778C3.0366 9.8841 3.72658 9.10975 4.57355 8.32843ZM12.0003 6.25812C10.7061 6.25812 9.45295 6.67358 8.29621 7.30988L10.0238 9.03741C11.407 8.1127 13.2955 8.26151 14.5169 9.48273C15.7383 10.7041 15.8859 12.5916 14.9613 13.9749L16.9114 15.9251C18.4178 14.8521 19.6336 13.5356 20.3782 12.6341C20.507 12.4694 20.5862 12.2445 20.5863 12.0003C20.5862 11.7539 20.5061 11.5267 20.3753 11.3616C19.6436 10.4762 18.4568 9.18654 16.9837 8.12335C15.5028 7.05457 13.7919 6.25822 12.0003 6.25812ZM13.5306 10.4691C12.858 9.79667 11.8536 9.66126 11.0452 10.0589L13.9407 12.9534C14.3379 12.1451 14.2029 11.1414 13.5306 10.4691Z" fill="currentColor"/></svg>
