<svg viewBox="0 0 24 24" xmlns="http://www.w3.org/2000/svg"><path d="M20.6047 12C20.6047 7.24778 16.7523 3.39535 12 3.39535C7.24778 3.39535 3.39535 7.24778 3.39535 12C3.39535 16.7523 7.24778 20.6047 12 20.6047C16.7523 20.6047 20.6047 16.7523 20.6047 12ZM11.3023 8.27907C11.3023 7.89375 11.6147 7.5814 12 7.5814C12.3853 7.5814 12.6977 7.89375 12.6977 8.27907V11.5976L16.1642 15.6383C16.4151 15.9305 16.3818 16.3711 16.0898 16.6221C15.7974 16.8729 15.3569 16.8397 15.1059 16.5476L11.4704 12.3116C11.3618 12.1851 11.3023 12.0231 11.3023 11.8565V8.27907ZM22 12C22 17.5229 17.5229 22 12 22C6.47716 22 2 17.5229 2 12C2 6.47715 6.47715 2 12 2C17.5229 2 22 6.47716 22 12Z" fill="currentColor"/></svg>
