<svg viewBox="0 0 24 24" xmlns="http://www.w3.org/2000/svg"><path d="M13.4288 2C15.3948 2.00013 16.9883 3.59454 16.9883 5.56055C16.988 7.28729 15.7585 8.72621 14.127 9.05078V13.4492H17.7217C18.2861 13.4493 18.8284 13.6731 19.2276 14.0723C19.6264 14.4713 19.8505 15.0128 19.8506 15.5771V21.3027C19.8504 21.6878 19.5376 22 19.1524 22C18.7675 21.9996 18.4554 21.6876 18.4551 21.3027V15.5771C18.455 15.383 18.3786 15.1961 18.2413 15.0586C18.1039 14.9212 17.9162 14.8448 17.7217 14.8447H13.4288C13.2438 14.8447 13.0664 14.7704 12.9356 14.6396C12.8048 14.5088 12.7315 14.3315 12.7315 14.1465V9.05078C11.0997 8.72653 9.8695 7.28758 9.8692 5.56055C9.8692 3.59449 11.4627 2.00005 13.4288 2ZM9.84967 10.5869C10.235 10.5865 10.5475 10.8989 10.5479 11.2842C10.5481 11.6692 10.2367 11.981 9.85162 11.9814C9.07362 11.9822 8.31027 12.1944 7.64264 12.5938C6.97488 12.9934 6.42714 13.5665 6.05865 14.252C5.69021 14.9373 5.51395 15.7101 5.54889 16.4873C5.58396 17.2647 5.82935 18.0186 6.25787 18.668C6.68643 19.3173 7.28273 19.8388 7.98346 20.1768C8.68437 20.5147 9.46419 20.656 10.2393 20.5869C11.0142 20.5176 11.7559 20.2407 12.3858 19.7842C13.0158 19.3275 13.5106 18.7082 13.8174 17.9932C13.9694 17.6392 14.3804 17.4751 14.7344 17.627C15.0882 17.7789 15.2521 18.1891 15.1006 18.543C14.6945 19.4895 14.039 20.3085 13.2051 20.9131C12.3712 21.5176 11.3892 21.8859 10.3633 21.9775C9.33755 22.069 8.30577 21.8808 7.37799 21.4336C6.45019 20.9862 5.66011 20.2961 5.09283 19.4365C4.52564 18.577 4.20082 17.5796 4.15436 16.5508C4.10802 15.5218 4.34244 14.4991 4.83014 13.5918C5.31787 12.6845 6.04197 11.9254 6.92584 11.3965C7.80952 10.8678 8.81989 10.588 9.84967 10.5869ZM13.4288 3.39551C12.2334 3.39556 11.2637 4.36512 11.2637 5.56055C11.2641 6.75569 12.2336 7.72456 13.4288 7.72461C14.6239 7.72448 15.5925 6.75564 15.5928 5.56055C15.5928 4.36517 14.6241 3.39564 13.4288 3.39551Z" fill="currentColor"/></svg>
