<svg viewBox="0 0 24 24" xmlns="http://www.w3.org/2000/svg"><path d="M20.4175 13.4697C20.5969 13.4249 20.7863 13.4538 20.9449 13.5488C21.1035 13.644 21.2183 13.7981 21.2632 13.9775L21.979 16.8398C22.0724 17.2136 21.845 17.5921 21.4712 17.6855C21.0975 17.7789 20.719 17.5514 20.6255 17.1777L20.3931 16.251C19.7137 17.4177 18.8065 18.4453 17.7154 19.2637C16.0684 20.4988 14.0839 21.2035 12.0269 21.2842C12.018 21.2845 12.0085 21.2842 11.9995 21.2842C10.0936 21.2844 8.23363 20.6979 6.67239 19.6045C5.11113 18.511 3.92425 16.9634 3.27298 15.1719C3.14153 14.8099 3.32813 14.4101 3.68997 14.2783C4.05199 14.1468 4.45277 14.3334 4.5845 14.6953C5.13787 16.2173 6.14577 17.5328 7.4722 18.4619C8.79346 19.3873 10.3672 19.8849 11.98 19.8887C13.7515 19.8177 15.46 19.2103 16.8784 18.1465C17.9387 17.3512 18.7991 16.3286 19.4019 15.1611L17.8941 15.5391C17.5203 15.6325 17.1409 15.4049 17.0474 15.0312C16.9542 14.6577 17.1817 14.2791 17.5552 14.1855L20.4175 13.4697ZM12.1079 15.2432C12.6399 15.2973 13.055 15.7467 13.0552 16.293C13.0551 16.8759 12.5824 17.3486 11.9995 17.3486C11.4169 17.3484 10.9449 16.8758 10.9449 16.293C10.9451 15.7104 11.417 15.2385 11.9995 15.2383L12.1079 15.2432ZM11.9995 6.29297C12.3846 6.29297 12.6973 6.6053 12.6978 6.99023V12.7158C12.6976 13.101 12.3847 13.4131 11.9995 13.4131C11.6146 13.4128 11.3025 13.1008 11.3023 12.7158V6.99023C11.3027 6.60546 11.6147 6.29322 11.9995 6.29297ZM12.0015 2.71582C13.917 2.72121 15.7848 3.31863 17.3472 4.42676C18.9096 5.53482 20.0906 7.09951 20.729 8.90527C20.8572 9.26838 20.6672 9.6674 20.3042 9.7959C19.9413 9.92409 19.5423 9.73383 19.4136 9.37109C18.8711 7.83663 17.8672 6.507 16.5396 5.56543C15.2185 4.62848 13.6412 4.1208 12.022 4.11133C10.2602 4.21805 8.56808 4.83934 7.15579 5.89844C6.10784 6.68446 5.2476 7.68591 4.6304 8.8291L6.10599 8.45996C6.47958 8.36656 6.85895 8.59434 6.95267 8.96777C7.04611 9.34153 6.81857 9.72094 6.44485 9.81445L3.58255 10.5303C3.20894 10.6236 2.8305 10.3959 2.73685 10.0225L2.02103 7.16016C1.92777 6.78645 2.15513 6.4069 2.52884 6.31348C2.90232 6.22037 3.2809 6.44795 3.37454 6.82129L3.61575 7.79102C4.30806 6.62688 5.22404 5.60271 6.3179 4.78223C7.95455 3.55476 9.91719 2.83623 11.9595 2.7168L12.0015 2.71582Z" fill="currentColor"/></svg>
