<svg viewBox="0 0 24 24" xmlns="http://www.w3.org/2000/svg"><path d="M18.24 2.01416C18.7523 2.01423 19.2467 2.18947 19.6427 2.50745L19.8062 2.6528L19.8171 2.6637L20.4457 3.30597C21.2998 4.15266 21.8367 5.2671 21.9683 6.46281C22.1002 7.66244 21.8149 8.87083 21.1607 9.88492C21.1578 9.88937 21.1555 9.89417 21.1525 9.89855C18.1463 14.329 14.3206 18.1439 9.88233 21.1387C9.87836 21.1414 9.87454 21.1443 9.87052 21.1469C8.85644 21.801 7.64799 22.0863 6.44841 21.9545C5.25261 21.8229 4.13829 21.2845 3.29156 20.4301L2.64929 19.8024C2.64562 19.7988 2.64199 19.7952 2.63839 19.7915C2.22925 19.373 1.99976 18.8107 1.99976 18.2253C1.99983 17.6402 2.22913 17.0777 2.63839 16.6592L2.64657 16.651L5.37372 13.952L5.37553 13.9502C5.79179 13.5412 6.35264 13.3125 6.93624 13.3125C7.51922 13.3126 8.07907 13.541 8.49513 13.9493L8.556 14.0038C8.70536 14.1239 8.89236 14.19 9.08562 14.19C9.30351 14.1899 9.51265 14.1054 9.66975 13.9548L13.9585 9.66689C14.0355 9.59099 14.0966 9.50042 14.1384 9.40072C14.1801 9.30095 14.202 9.19362 14.202 9.08549C14.202 8.97732 14.1802 8.87008 14.1384 8.77026C14.0967 8.67054 14.0355 8.58001 13.9585 8.50409L13.9503 8.49591C13.5414 8.0797 13.3117 7.51961 13.3117 6.93611C13.3117 6.35249 13.5413 5.79166 13.9503 5.3754L13.9549 5.37177L16.6739 2.6528C17.0924 2.24365 17.6547 2.01416 18.24 2.01416ZM14.7071 6.93611C14.7071 7.15382 14.7934 7.36316 14.946 7.51842C15.1511 7.72257 15.3139 7.96452 15.4257 8.23155C15.5388 8.50195 15.5973 8.79232 15.5973 9.08549C15.5973 9.3786 15.5388 9.66905 15.4257 9.93943C15.3131 10.2082 15.1476 10.4512 14.9405 10.6562L10.6572 14.9413L10.6509 14.9468C10.2324 15.3559 9.6708 15.5853 9.08562 15.5854C8.50028 15.5854 7.93802 15.356 7.51946 14.9468L7.51765 14.9459C7.36245 14.7934 7.15382 14.7079 6.93624 14.7079C6.71849 14.7079 6.50924 14.7932 6.35393 14.9459L3.63586 17.6349L3.58136 17.6966C3.46148 17.8458 3.39519 18.0322 3.39513 18.2253C3.39513 18.4451 3.4809 18.6563 3.63405 18.814L4.26723 19.4336L4.27632 19.4418C4.89881 20.0726 5.72006 20.4704 6.60103 20.5673C7.48193 20.664 8.36908 20.4544 9.11378 19.9741C13.3969 17.0817 17.0886 13.3987 19.9915 9.12274C20.4695 8.37914 20.6786 7.49419 20.582 6.61543C20.485 5.73436 20.0872 4.91326 19.4564 4.29072L19.4473 4.28164L18.8305 3.65027L18.7687 3.59576C18.6194 3.47585 18.4332 3.4096 18.24 3.40953C18.0194 3.40953 17.8074 3.49601 17.6495 3.65027L14.946 6.3538L14.8915 6.41466C14.7729 6.56168 14.7071 6.74561 14.7071 6.93611Z" fill="currentColor"/></svg>
