<svg viewBox="0 0 24 24" xmlns="http://www.w3.org/2000/svg"><path d="M20.7647 3.75601C21.0101 3.45903 21.4497 3.4171 21.7467 3.66244C22.0437 3.90786 22.0856 4.34744 21.8402 4.64446L9.37471 19.729L9.3738 19.7308C9.17143 19.9738 8.917 20.1687 8.6298 20.3013C8.34296 20.4335 8.0291 20.5014 7.71228 20.4975C7.39057 20.4936 7.07386 20.4167 6.78658 20.2732V20.2723C6.49922 20.1284 6.24769 19.9219 6.05166 19.6672V19.6663L2.14721 14.6463C1.91068 14.3422 1.96486 13.9036 2.26894 13.667C2.57302 13.4305 3.01163 13.4857 3.24823 13.7897L7.15541 18.8133L7.15722 18.816C7.22477 18.9038 7.31158 18.9753 7.41068 19.025L7.48699 19.0577C7.56461 19.086 7.64682 19.1012 7.72954 19.1022C7.8379 19.1035 7.94548 19.0798 8.04476 19.0341C8.1436 18.9884 8.23118 18.9216 8.30094 18.8378L20.7647 3.75601Z" fill="currentColor"/></svg>
