<svg viewBox="0 0 24 24" xmlns="http://www.w3.org/2000/svg"><path d="M2.20441 2.20441C2.47685 1.93197 2.91827 1.932 3.19073 2.20441L9.21613 8.2298L14.4612 4.54523L14.4651 4.5423C15.8566 3.57985 17.7339 4.59075 17.7064 6.2757V16.72L21.7952 20.8089C22.0677 21.0814 22.0677 21.5228 21.7952 21.7952C21.5228 22.0677 21.0814 22.0677 20.8089 21.7952L2.20441 3.19074C1.93199 2.91828 1.93196 2.47686 2.20441 2.20441ZM5.42316 9.13801C5.6832 8.85406 6.12429 8.83427 6.40851 9.09406C6.69272 9.35403 6.71224 9.79509 6.45245 10.0794C6.32841 10.215 6.25817 10.389 6.25812 10.5696V13.432C6.25827 13.8258 6.59666 14.1641 6.99054 14.1644H9.138C9.28374 14.1645 9.42583 14.2113 9.54425 14.2962L15.1302 18.3109L15.2337 18.3704C15.3399 18.42 15.453 18.4399 15.5667 18.4339C15.9514 18.4136 16.2797 18.7084 16.3001 19.0931C16.3205 19.4777 16.0255 19.8068 15.6409 19.8275C15.2003 19.8509 14.7408 19.7382 14.3362 19.4583L14.3265 19.4505L8.91241 15.5599H6.99054C5.82603 15.5596 4.86275 14.5965 4.86261 13.432V10.5696C4.86267 10.0174 5.07992 9.51333 5.42316 9.13801ZM16.3118 6.26008C16.3251 5.70309 15.7152 5.3745 15.2591 5.68977L10.2181 9.23078L16.3118 15.3245V6.26008Z" fill="currentColor"/></svg>
