<svg viewBox="0 0 24 24" xmlns="http://www.w3.org/2000/svg"><path d="M13.2106 17.8518C13.2106 17.1833 12.6685 16.6412 12 16.6412C11.3315 16.6412 10.7894 17.1833 10.7893 17.8518C10.7893 18.5204 11.3315 19.0624 12 19.0625C12.6686 19.0625 13.2106 18.5204 13.2106 17.8518ZM12.0436 11.4479C12.8018 11.448 13.5526 11.5997 14.2512 11.8945C14.9499 12.1893 15.5825 12.6213 16.1117 13.1645C16.3697 13.4295 16.3643 13.8536 16.0994 14.1117C15.8345 14.3698 15.4104 14.3642 15.1522 14.0995C14.7479 13.6844 14.2643 13.354 13.7305 13.1287C13.1967 12.9035 12.623 12.7877 12.0436 12.7877C11.4641 12.7877 10.8897 12.9034 10.3558 13.1287C9.822 13.354 9.3384 13.6844 8.93411 14.0995C8.67593 14.3642 8.25177 14.3697 7.98687 14.1117C7.72198 13.8536 7.71666 13.4295 7.97466 13.1645C8.50379 12.6213 9.13644 12.1893 9.83512 11.8945C10.5339 11.5997 11.2852 11.4479 12.0436 11.4479ZM12.007 7.76278C13.3346 7.76278 14.6495 8.02575 15.8753 8.53558C17.1008 9.04535 18.2137 9.79227 19.1496 10.7336C19.4104 10.9959 19.4093 11.42 19.147 11.6808C18.8846 11.9417 18.4606 11.9406 18.1998 11.6782C17.4898 10.9642 16.6625 10.3789 15.7549 9.94771L15.3607 9.77239C14.2979 9.33038 13.158 9.10252 12.007 9.10252C10.8561 9.10256 9.71671 9.33049 8.65412 9.77239C7.59149 10.2144 6.62648 10.8621 5.81503 11.6782C5.55419 11.9406 5.13015 11.9416 4.86779 11.6808C4.60544 11.42 4.60349 10.9959 4.8643 10.7336C5.80032 9.79211 6.91372 9.04542 8.13951 8.53558C9.36519 8.02581 10.6795 7.76282 12.007 7.76278ZM12 4C13.8209 4 15.6243 4.35921 17.3066 5.05627C18.9887 5.75331 20.5167 6.775 21.8038 8.06283C22.0653 8.3245 22.0655 8.74854 21.8038 9.01007C21.5421 9.2714 21.118 9.2708 20.8566 9.00919C19.6939 7.84594 18.3132 6.9236 16.7937 6.29395C15.274 5.66426 13.6449 5.33974 12 5.33974C10.3552 5.33976 8.72665 5.66433 7.2071 6.29395C5.6875 6.92362 4.30621 7.8458 3.1434 9.00919C2.88189 9.27084 2.45784 9.27152 2.19616 9.01007C1.93452 8.74856 1.93471 8.3245 2.19616 8.06283C3.48341 6.7749 5.012 5.75332 6.69423 5.05627C8.37637 4.35927 10.1792 4.00002 12 4ZM14.5504 17.8518C14.5504 19.2603 13.4085 20.4022 12 20.4022C10.5916 20.4021 9.44959 19.2603 9.44959 17.8518C9.44964 16.4434 10.5916 15.3015 12 15.3014C13.4085 15.3014 14.5503 16.4434 14.5504 17.8518Z" fill="currentColor"/></svg>
