<svg viewBox="0 0 24 24" xmlns="http://www.w3.org/2000/svg"><path d="M2.20441 2.20441C2.47685 1.93196 2.91827 1.93199 3.19073 2.20441L7.1087 6.12238C8.67078 5.5327 10.3282 5.2298 12.0003 5.2298C13.8195 5.22984 15.6214 5.58812 17.3021 6.28448C18.9825 6.98088 20.5093 8.00184 21.7952 9.28839C22.0676 9.56087 22.0676 10.0023 21.7952 10.2747C21.5227 10.5469 21.0812 10.5471 20.8089 10.2747C19.6525 9.11774 18.2791 8.19981 16.7679 7.57355C15.2566 6.94735 13.6362 6.62437 12.0003 6.62433C10.71 6.62433 9.42939 6.82609 8.20441 7.21808L10.139 9.15167C10.2139 9.13728 10.2986 9.12278 10.3919 9.10773C10.7875 9.04393 11.3458 8.98176 12.0071 8.98175C13.3345 8.98177 14.6487 9.24357 15.8743 9.75323C17.1 10.263 18.2137 11.01 19.1497 11.9515C19.4213 12.2247 19.42 12.6671 19.1468 12.9388C18.8737 13.2101 18.4321 13.2086 18.1605 12.9359C17.3543 12.1249 16.395 11.4805 15.3392 11.0413C14.2834 10.6022 13.1506 10.3763 12.0071 10.3763C11.7854 10.3763 11.5773 10.3865 11.386 10.3997L21.7952 20.8089C22.0677 21.0814 22.0677 21.5228 21.7952 21.7952C21.5228 22.0677 21.0814 22.0677 20.8089 21.7952L2.20441 3.19073C1.93199 2.91827 1.93196 2.47685 2.20441 2.20441ZM12.0003 16.4974C13.4208 16.4975 14.5724 17.6491 14.5726 19.0696C14.5725 20.4902 13.4208 21.6417 12.0003 21.6419C10.5796 21.6419 9.42717 20.4903 9.42706 19.0696C9.42719 17.649 10.5797 16.4974 12.0003 16.4974ZM12.0003 17.8929C11.3503 17.8929 10.8227 18.4196 10.8226 19.0696C10.8227 19.7197 11.3503 20.2464 12.0003 20.2464C12.6502 20.2462 13.177 19.7196 13.1771 19.0696C13.1769 18.4197 12.6502 17.8931 12.0003 17.8929ZM9.82941 13.1028C10.1843 12.9531 10.5945 13.1192 10.7444 13.4739C10.8941 13.8288 10.7271 14.2381 10.3724 14.388C9.84401 14.611 9.36535 14.9382 8.96515 15.3489C8.69629 15.6249 8.25481 15.6304 7.97882 15.3616C7.70284 15.0928 7.69641 14.6513 7.96515 14.3753C8.49534 13.831 9.12938 13.3983 9.82941 13.1028ZM6.87335 10.3958C7.19605 10.2511 7.58265 10.3719 7.763 10.6849C7.94313 10.9978 7.85357 11.3924 7.56671 11.5989L7.50812 11.637C7.50812 11.637 7.50463 11.6385 7.50226 11.64C7.49726 11.6429 7.48826 11.6477 7.47687 11.6546C7.45402 11.6684 7.41879 11.6902 7.37335 11.7191C7.28206 11.777 7.14918 11.8637 6.99054 11.9769C6.67123 12.2046 6.25489 12.5334 5.8548 12.9359C5.58318 13.209 5.14075 13.2103 4.86749 12.9388C4.59424 12.6671 4.59387 12.2247 4.86554 11.9515C5.33638 11.478 5.81871 11.1005 6.18097 10.8421C6.36276 10.7124 6.51646 10.611 6.62628 10.5413C6.68093 10.5067 6.72493 10.4791 6.75616 10.4603C6.77138 10.4511 6.78431 10.444 6.79327 10.4388L6.80792 10.429L6.8089 10.428L6.87335 10.3958ZM3.96222 7.80695C4.27048 7.57576 4.70857 7.63736 4.93976 7.94562C5.17079 8.25372 5.10795 8.69091 4.80011 8.92218C4.17252 9.39286 3.67158 9.79361 3.19073 10.2747C2.91835 10.5472 2.47694 10.5471 2.20441 10.2747C1.93218 10.0023 1.93213 9.56082 2.20441 9.28839C2.75543 8.7371 3.31801 8.2901 3.96222 7.80695Z" fill="currentColor"/></svg>
